<?xml version="1.0" encoding="utf-8"?>
<!-- Generator: Adobe Illustrator 24.1.1, SVG Export Plug-In . SVG Version: 6.00 Build 0)  -->
<svg version="1.1" id="图层_1" xmlns="http://www.w3.org/2000/svg" xmlns:xlink="http://www.w3.org/1999/xlink" x="0px" y="0px"
	 viewBox="0 0 2020 2020" style="enable-background:new 0 0 2020 2020;" xml:space="preserve">
<style type="text/css">
	.st0{display:none;}
	.st1{display:inline;}
	.st2{fill:#562300;}
	.st3{fill:#FFFFFF;}
	.st4{fill:#F26A06;}
	.st5{fill:#F7872B;}
	.st6{fill:#A9DAFF;}
	.st7{fill:#F9BD28;}
	.st8{fill:#FFD93B;}
</style>
<g id="OUTLINE" class="st0">
	<g class="st1">
		<path class="st2" d="M1035,769.3c-67.8,0-131.6,26.4-179.6,74.4c-48,48-74.4,111.7-74.4,179.6s26.4,131.6,74.4,179.6
			s111.7,74.4,179.6,74.4s131.6-26.4,179.6-74.4s74.4-111.7,74.4-179.6s-26.4-131.6-74.4-179.6
			C1166.6,795.7,1102.8,769.3,1035,769.3z M1035,1257.2c-129,0-234-104.9-234-234s105-234,234-234s233.9,105,233.9,234
			S1164,1257.2,1035,1257.2z"/>
		<path class="st2" d="M1545,576.9c-7.5-7.2-17.4-10.9-27.8-10.4c-20.1,1-35.9,17.8-35.9,38.4v252.1h-18.4V602
			c0-19.6-15.9-35.5-35.5-35.5c-19.6,0-35.5,15.9-35.5,35.5v181c-5.8-8.6-11.9-16.9-18.3-25.1V605c0-20.6-15.8-37.5-35.9-38.4
			c-10.4-0.5-20.3,3.2-27.8,10.4c-7.4,7.1-11.7,17-11.7,27.3V683c-29.3-22.8-61.4-41.6-95.8-56.1c-53.1-22.4-109.4-33.8-167.5-33.8
			c-58.1,0-114.4,11.4-167.5,33.8c-41.4,17.5-79.4,41.1-113.3,70.4c-7.3-23.9-17.8-46-31.3-65c-28.7-40.6-67.1-63-108.2-63
			c-11.4,0-22.9,1.8-34,5.3c-33.3,10.5-63.4,36.8-84.7,74c-21.5,37.6-32.9,82.9-32.9,131.2c0,98,48.3,182.3,116,204.7l-22.2,348.9
			l-3.2,50.3c-0.1,2.1-0.2,4.2-0.1,6.2c0.1,2.1,0.3,4.1,0.5,6.1c0.1,0.8,0.2,1.5,0.4,2.3c1.6,9,5.3,17.4,10.8,24.8
			c1.4,1.8,2.9,3.6,4.5,5.3c11.4,12.2,26.9,18.8,43.5,18.8c0.9,0,1.8,0,2.7-0.1c0.3,0,0.6,0,0.9-0.1c0.6,0,1.2-0.1,1.8-0.1
			c0.3,0,0.7-0.1,1-0.1c0.8-0.1,1.5-0.2,2.2-0.3c0.5-0.1,1.1-0.2,1.7-0.3c0.2,0,0.5-0.1,0.7-0.1c9.7-1.8,18.6-6,26.1-11.9
			c0.2-0.1,0.3-0.2,0.5-0.3c0.4-0.3,0.7-0.6,1.1-0.9c0.3-0.3,0.6-0.5,0.9-0.8c0.3-0.3,0.6-0.5,0.9-0.8c0.6-0.6,1.2-1.1,1.8-1.7
			c0.1-0.1,0.1-0.1,0.2-0.2c0.6-0.6,1.1-1.1,1.7-1.7c0.1-0.1,0.3-0.3,0.4-0.4c0.5-0.6,1-1.2,1.6-1.8c0.1-0.1,0.1-0.1,0.2-0.2
			c1.2-1.4,2.3-2.9,3.3-4.4c0.1-0.1,0.1-0.2,0.2-0.3c0.5-0.7,0.9-1.4,1.4-2.1c0-0.1,0.1-0.1,0.1-0.2c0.5-0.8,1-1.6,1.4-2.4
			c0,0,0-0.1,0-0.1c0.4-0.7,0.8-1.5,1.1-2.2c0.1-0.2,0.2-0.4,0.3-0.7c0.1-0.3,0.2-0.5,0.4-0.7c0.1-0.2,0.2-0.5,0.3-0.7
			c0.2-0.5,0.5-1.1,0.7-1.6c0.2-0.4,0.3-0.8,0.5-1.2c0.2-0.5,0.4-1.1,0.6-1.6c0.2-0.4,0.3-0.9,0.5-1.3c0.2-0.5,0.3-1,0.5-1.5
			s0.3-1,0.4-1.5c0.1-0.4,0.2-0.9,0.3-1.3c0.1-0.6,0.3-1.1,0.4-1.7c0.1-0.4,0.2-0.8,0.2-1.3c0.1-0.6,0.2-1.2,0.3-1.8
			c0.1-0.4,0.1-0.9,0.2-1.3c0.1-0.6,0.2-1.2,0.2-1.7c0.1-0.5,0.1-1.1,0.1-1.6c0-0.5,0.1-1,0.1-1.4c0-1,0.1-2.1,0.1-3.1
			c0-1.2,0-2.4-0.1-3.5l-2.9-50.6l-5.2-90.3c18.2,30.6,40.2,58.9,65.7,84.4c39.5,39.5,85.5,70.5,136.8,92.2
			c53,22.4,109.4,33.8,167.5,33.8c58.1,0,114.4-11.4,167.5-33.8c51.2-21.7,97.2-52.7,136.8-92.2c12.4-12.4,24-25.5,34.7-39.2
			l-3.3,52.3l-2.7,43c-0.4,6.7,0.3,13.3,2,19.6c2.5,9.3,7.3,17.8,14.1,25.1c0.7,0.8,1.4,1.5,2.2,2.2c0.3,0.2,0.5,0.5,0.8,0.7
			c0.5,0.5,1,0.9,1.5,1.4c0.7,0.6,1.5,1.3,2.3,1.9c0,0,0.1,0.1,0.1,0.1c10.4,8.2,23.2,12.6,36.7,12.6c0.9,0,1.8,0,2.8-0.1
			c0.3,0,0.5,0,0.8,0c0.6,0,1.2-0.1,1.8-0.1c13.9-1.2,26.7-7.2,36.7-17.1c0.1-0.1,0.2-0.2,0.3-0.3c0.3-0.3,0.7-0.7,1.1-1.1
			c0.3-0.4,0.7-0.7,1-1.1c0.2-0.3,0.5-0.5,0.7-0.8c0.3-0.4,0.7-0.8,1-1.2c0.2-0.3,0.4-0.5,0.6-0.8c6.4-8,10.6-17.4,12.2-27.3
			c0-0.1,0-0.2,0.1-0.3c0.1-0.8,0.2-1.7,0.3-2.6c0-0.2,0.1-0.4,0.1-0.7c0.1-0.8,0.1-1.5,0.2-2.3c0-0.3,0.1-0.6,0.1-0.9
			c0-0.6,0-1.3,0.1-1.9c0-0.4,0-0.7,0-1.1c0-0.1,0-0.2,0-0.3c0-0.1,0-0.2,0-0.3c0-1,0-2-0.1-2.9l-2.9-50.6c0,0,0-0.1,0-0.1
			l-19.8-344.6c28.5-7.2,70.3-26.4,86.1-77.7c4.1-13.2,6.2-28,6.2-44V604.2C1556.7,593.9,1552.5,584,1545,576.9z M1373.7,792
			c6.5,9.5,12.6,19.2,18.3,29.2v35.8h-18.3V792z M599.7,977.7c0.3-4.8-2.9-9.2-7.5-10.3c-29.7-7.5-57-30-76.9-63.4
			c-20.6-34.6-32-78.7-32-124.3c0-44.1,10.7-87.2,30.2-121.3c15.3-26.8,35.5-47.1,57.9-58.5c5-2.6,10.2-4.7,15.5-6.4
			c9.1-2.9,18.5-4.3,27.9-4.3c72.5,0,131.5,85.4,131.5,190.5c0,28.9-4.4,56.7-13,82.5c-3.1,9.3-6.7,18.2-10.8,26.5
			c-20,41.2-50.6,69.8-85.1,78.6c-4.7,1.2-7.8,5.5-7.5,10.3l19.9,346.3h-72L599.7,977.7z M653.2,1389.6c0,0.3,0,0.7-0.1,1
			s0,0.7-0.1,1c0,0.4-0.1,0.8-0.2,1.2c0,0.3-0.1,0.5-0.1,0.8c-0.1,0.4-0.1,0.8-0.2,1.2c0,0.3-0.1,0.5-0.2,0.8
			c-0.1,0.4-0.2,0.8-0.3,1.2c-0.1,0.3-0.1,0.6-0.2,0.8c-0.1,0.3-0.2,0.7-0.3,1.1c-0.1,0.3-0.2,0.6-0.3,0.9c-0.1,0.3-0.2,0.6-0.3,0.9
			c-0.1,0.3-0.2,0.7-0.4,1c-0.1,0.3-0.2,0.6-0.3,0.8c-0.2,0.4-0.3,0.7-0.5,1.1c-0.1,0.2-0.2,0.5-0.3,0.7c-0.4,0.8-0.7,1.5-1.1,2.3
			c0,0.1-0.1,0.2-0.1,0.3c-0.4,0.7-0.8,1.3-1.2,1.9c-0.1,0.2-0.3,0.4-0.4,0.6c-0.5,0.7-0.9,1.4-1.4,2c-0.1,0.1-0.1,0.2-0.2,0.2
			c-0.2,0.2-0.3,0.4-0.5,0.6c-0.3,0.4-0.6,0.8-1,1.2c-0.1,0.2-0.3,0.3-0.4,0.4c-1.2,1.3-2.4,2.6-3.7,3.7c-0.1,0.1-0.1,0.1-0.2,0.2
			c-5.7,4.9-12.6,8.1-20.2,9.2h0c-0.8,0.1-1.7,0.2-2.5,0.3c-0.2,0-0.4,0-0.6,0c-0.9,0.1-1.8,0.1-2.6,0.1c-11.1,0-21.4-4.4-29-12.5
			c-3.8-4.1-6.7-8.7-8.5-13.7c-0.5-1.3-0.8-2.5-1.2-3.8c-1-3.9-1.3-8-1.1-12.1l2.6-40.7l0-0.2h13.1h61.3l2.4,41.2
			c0,0.7,0.1,1.5,0.1,2.3C653.3,1388.2,653.3,1388.9,653.2,1389.6z M1035,1433.5c-165.1,0-307.7-98-372.7-238.9l-12.1-210.2
			c44.7-14.8,82.5-57.5,102-115.8c9.3-27.9,14.1-57.8,14.1-88.9c0-20.8-2.2-41.2-6.3-60.6C832.8,653.2,929.3,613,1035,613
			c100.1,0,192,36.1,263.3,95.9v158.2c0,87.3,60.5,114,94.2,122.1v7.2l-16.2,254.2C1302.7,1360.8,1177.2,1433.5,1035,1433.5z
			 M1430.8,1427c-0.2,0-0.4,0-0.6,0.1c-0.8,0.1-1.6,0.1-2.3,0.1c-0.1,0-0.2,0-0.3,0c-9,0-17.5-2.9-24.4-8.4
			c-0.1-0.1-0.2-0.2-0.3-0.3c-0.4-0.3-0.8-0.7-1.3-1s-0.8-0.7-1.2-1.1c-0.1-0.1-0.2-0.2-0.3-0.3c-0.5-0.5-1-1-1.4-1.5
			c-4.1-4.3-7-9.4-8.8-14.8c-1.5-4.7-2.2-9.8-1.9-14.9l2.6-40.9h13.1h61.3l2.4,41.2c0,0.7,0.1,1.3,0.1,2c0,0,0,0.1,0,0.1
			c0,0.4,0,0.8,0,1.1c0,0.3,0,0.7,0,1c0,0.3,0,0.6-0.1,0.9c0,0.4-0.1,0.8-0.1,1.2c0,0.2-0.1,0.5-0.1,0.7c-0.1,0.5-0.1,0.9-0.2,1.4
			c0,0.2-0.1,0.4-0.1,0.5c-0.1,0.5-0.2,1.1-0.3,1.6c0,0.1-0.1,0.2-0.1,0.3c-0.1,0.6-0.3,1.2-0.4,1.8c0,0,0,0.1,0,0.1
			c-0.6,2-1.3,4-2.2,5.9c-0.8,1.8-1.7,3.4-2.7,5c0,0-0.1,0.1-0.1,0.1c-0.5,0.8-1,1.5-1.6,2.2c0,0,0,0.1-0.1,0.1
			c-0.2,0.3-0.4,0.5-0.6,0.8c-0.4,0.5-0.7,0.9-1.1,1.4c-0.1,0.1-0.1,0.1-0.2,0.2c-0.6,0.6-1.1,1.2-1.7,1.8c-0.1,0.1-0.1,0.1-0.2,0.2
			C1448.9,1422.1,1440.2,1426.3,1430.8,1427z M1536.7,867.1c0,13.9-1.8,26.7-5.3,38.1c-0.8,2.5-1.7,5-2.6,7.4
			c-16.3,40.9-54.6,54.2-76.7,58.5c-4.9,1-8.4,5.4-8.1,10.4l19.7,342.6h-71.9l20.8-326.6c0-0.2,0-0.4,0-0.6v-15.6
			c0-4.8-3.4-9-8.2-9.8c-32.1-5.8-86-27.2-86-104.2V604.2c0-4.9,1.9-9.4,5.5-12.8c3.3-3.2,7.6-4.9,12.2-4.9c0.3,0,0.6,0,0.9,0
			c9.3,0.4,16.8,8.7,16.8,18.5v262.1c0,5.5,4.5,10,10,10h38.3c5.5,0,10-4.5,10-10v-3.6V602c0-8.5,6.9-15.5,15.5-15.5
			c8.5,0,15.5,6.9,15.5,15.5v265.1c0,5.5,4.5,10,10,10h38.4c5.5,0,10-4.5,10-10V605c0-9.7,7.6-18,16.8-18.5l0,0
			c4.9-0.2,9.5,1.5,13.1,4.9c3.5,3.4,5.5,7.9,5.5,12.8L1536.7,867.1L1536.7,867.1z"/>
		<path class="st2" d="M699,740.6c1,4.7,5.1,8,9.8,8c0.7,0,1.3-0.1,2-0.2c5.4-1.1,8.9-6.4,7.8-11.8c-11.1-54.5-41.4-93.7-42.7-95.3
			c-3.4-4.3-9.7-5.1-14-1.7c-4.3,3.4-5.1,9.7-1.7,14C660.4,653.9,688.9,690.9,699,740.6z"/>
		<path class="st2" d="M711.7,760.4c-5.4,1.1-8.9,6.4-7.8,11.8c0.3,1.6,0.9,6.5,0,10.6c-1.2,5.4,2.2,10.7,7.6,11.9
			c0.7,0.2,1.5,0.2,2.2,0.2c4.6,0,8.7-3.2,9.8-7.8c2-9,0.2-18,0-19C722.3,762.7,717,759.3,711.7,760.4z"/>
		<path class="st2" d="M1192.8,1142.8c-4.7-2.9-10.8-1.5-13.8,3.2c-17.1,27.3-42.8,47.9-76.3,61.1c-25.4,10-46,11.8-46.2,11.8
			c-5.5,0.4-9.6,5.3-9.2,10.8c0.4,5.2,4.8,9.2,10,9.2c0.3,0,0.5,0,0.8,0c0.9-0.1,23.3-1.9,51.3-12.9c37.3-14.6,67.3-38.6,86.6-69.3
			C1198.9,1151.9,1197.5,1145.7,1192.8,1142.8z"/>
		<path class="st2" d="M1200.5,1129.8c1.6,0.9,3.3,1.3,4.9,1.3c3.5,0,6.8-1.8,8.7-5l8.5-14.9c2.7-4.8,1.1-10.9-3.7-13.6
			c-4.8-2.7-10.9-1.1-13.6,3.7l-8.5,14.9C1194.1,1120.9,1195.7,1127,1200.5,1129.8z"/>
		<path class="st2" d="M1508.5,890.5c-5.1-2.2-10.9,0.2-13.1,5.3c-3.3,7.7-7.1,13.7-11.1,18.5c-8.9,10.7-18.7,15.3-25.1,17.2
			c-4.2,1.3-7.1,5.2-7.1,9.6c0,6.7,6.4,11.5,12.8,9.7c11.8-3.4,29.3-12.1,42.6-34.6c2.2-3.8,4.4-7.9,6.3-12.5
			C1515.9,898.5,1513.5,892.6,1508.5,890.5z"/>
		<path class="st2" d="M1411.7,931.3l-11.6-3.2c-5.3-1.5-10.8,1.7-12.3,7c-1.5,5.3,1.7,10.8,7,12.3l11.6,3.2
			c0.9,0.3,1.8,0.4,2.7,0.4c4.4,0,8.4-2.9,9.6-7.3C1420.2,938.2,1417,932.7,1411.7,931.3z"/>
		<path class="st2" d="M904,672.6c1.5,0,3.1-0.3,4.5-1.1c0.4-0.2,42.4-21.3,93.7-20.5c0,0,0.1,0,0.2,0c5.5,0,9.9-4.4,10-9.8
			c0.1-5.5-4.3-10.1-9.8-10.2c-56.2-0.8-101.2,21.7-103,22.7c-4.9,2.5-6.9,8.5-4.4,13.5C896.8,670.6,900.4,672.6,904,672.6z"/>
		<path class="st2" d="M1047.6,647.2c5.3-0.5,14.6-0.5,18.7,1.1c1.2,0.5,2.5,0.7,3.7,0.7c4,0,7.7-2.4,9.3-6.3c2-5.1-0.5-11-5.6-13
			c-10.1-4-25.2-2.7-28.1-2.4c-5.5,0.6-9.5,5.5-8.9,11C1037.2,643.8,1042.1,647.8,1047.6,647.2z"/>
	</g>
</g>
<g id="OUTLINE_FILLED">
	<g>
		<g>
			<circle class="st3" cx="1052.3" cy="1032.4" r="710.7"/>
			<path class="st2" d="M1052.3,1760c-98.2,0-193.5-19.2-283.2-57.2c-86.6-36.6-164.4-89.1-231.3-155.9s-119.3-144.6-155.9-231.3
				c-37.9-89.7-57.2-185-57.2-283.2c0-98.2,19.2-193.5,57.2-283.2C418.6,662.6,471,584.8,537.8,518
				c66.8-66.8,144.6-119.3,231.3-155.9c89.7-37.9,185-57.2,283.2-57.2s193.5,19.2,283.2,57.2c86.6,36.6,164.4,89.1,231.3,155.9
				c66.8,66.8,119.3,144.6,155.9,231.3c37.9,89.7,57.2,185,57.2,283.2s-19.2,193.5-57.2,283.2c-36.6,86.6-89.1,164.4-155.9,231.3
				c-66.8,66.8-144.6,119.3-231.3,155.9C1245.8,1740.8,1150.5,1760,1052.3,1760z M1052.3,338.7c-382.5,0-693.7,311.2-693.7,693.7
				s311.2,693.7,693.7,693.7c382.5,0,693.7-311.2,693.7-693.7S1434.8,338.7,1052.3,338.7z"/>
		</g>
		<g>
			<path class="st4" d="M341.6,281.6c-18,0-35.5,2.8-52.3,8.1c-107,33.8-187,169.1-187,330.9c0,166.8,85,305.4,197,333.7L261,1557.8
				l-5.4,85.1c-3.1,48.4,35.4,89.4,83.9,89.4c46.7,0,84.1-37.9,84.1-84c0-1.6-0.1-3.2-0.2-4.9l-4.9-85.6L384,954.3
				C461.1,934.9,525.5,863,558,765.6c14.7-44,22.9-93.1,22.9-144.9C581,433.4,473.8,281.6,341.6,281.6z"/>
			<path class="st2" d="M339.6,1749.3c-28.2,0-54.4-11.3-73.6-31.9c-19.3-20.6-29-47.4-27.2-75.5l5.4-85.1l37.5-590
				C167.1,928.9,85.4,786.3,85.4,620.7c0-81.6,19.2-158.3,55.6-221.9c36-62.9,86.9-107.4,143.2-125.2c18.7-5.9,38-8.9,57.4-8.9
				c69.6,0,134.6,37.8,183,106.5c47.2,66.9,73.2,155.5,73.2,249.5c0,52.6-8,103.1-23.8,150.3c-33,98.7-96.8,170.8-172.5,195.8
				l33.9,590.1l4.9,85.6c0.1,1.8,0.2,3.8,0.2,5.9C440.6,1704,395.3,1749.3,339.6,1749.3z M341.6,298.5c-15.9,0-31.8,2.5-47.2,7.3
				c-48.2,15.2-92.2,54.2-124,109.7c-33,57.6-51.1,130.4-51.1,205c0,77,19.2,151.7,54.1,210.1c33.7,56.4,79.9,94.5,130.1,107.2
				c7.9,2,13.3,9.3,12.7,17.5l-38.3,603.5l-5.4,85.1c-1.2,18.7,5.2,36.6,18.1,50.3c12.8,13.7,30.2,21.2,49,21.2
				c37.1,0,67.2-30.1,67.2-67.1c0-1.4,0-2.6-0.1-3.9l-4.9-85.7L367,955.3c-0.5-8.1,4.9-15.4,12.7-17.4
				c70.3-17.8,130.9-84.2,162.2-177.7c14.6-43.7,22.1-90.7,22.1-139.6C564,443,464.3,298.5,341.6,298.5z"/>
		</g>
		<g>
			<path class="st4" d="M1868.6,277c-25.2,1.2-44.6,22.9-44.6,48.1v443.2H1759V320c0-23.8-19.3-43.1-43.1-43.1
				c-23.8,0-43.1,19.3-43.1,43.1v448.3h-64.7V325.1c0-25.2-19.4-46.9-44.6-48.1c-26.9-1.3-49.1,20.2-49.1,46.8v444.6
				c0,146,107,183.2,159.3,192.8v26.4l-41.6,655.4c-3.1,48.4,35.4,89.4,83.9,89.4l0,0c48.3,0,86.7-40.7,84-88.9l-39.2-682.8
				c43.3-8.3,120.2-35.4,147.2-123c6.1-19.9,9.7-42.8,9.7-69.3V323.8C1917.6,297.1,1895.4,275.7,1868.6,277z"/>
			<path class="st2" d="M1716.1,1749.3c-28.2,0-54.4-11.3-73.7-31.9s-29-47.4-27.2-75.5l41.6-654.9v-12.2
				c-57-13.7-159.3-58.9-159.3-206.5V323.7c0-17.3,7.2-34.2,19.8-46.1c12.7-12.1,29.5-18.4,47.1-17.5c34,1.6,60.7,30.2,60.7,65
				v426.4h30.9V320c0-33.1,26.9-60,60-60c33.1,0,60,26.9,60,60v431.4h31.1V325.1c0-34.8,26.7-63.4,60.7-65l0,0
				c17.6-0.8,34.3,5.4,47,17.5c12.5,12,19.8,28.8,19.8,46.1v444.6c0,26.9-3.5,51.9-10.4,74.3c-26.7,86.7-97.4,119.2-145.6,131.3
				l38.4,668.5c1.6,28-8.1,54.7-27.4,75.1C1770.2,1738,1744.1,1749.3,1716.1,1749.3z M1561.3,293.8c-7.7,0-15,2.9-20.7,8.3
				c-6,5.7-9.3,13.4-9.3,21.6v444.6c0,130.2,91.1,166.2,145.4,176.1c8,1.5,13.9,8.5,13.9,16.6v26.4c0,0.4,0,0.7,0,1.1L1649,1644
				c-1.2,18.7,5.2,36.6,18.1,50.2s30.2,21.2,49,21.2c18.7,0,36-7.5,48.9-21.1c12.8-13.6,19.3-31.3,18.2-50l-39.2-682.8
				c-0.5-8.5,5.4-16,13.7-17.6c39.7-7.6,109.9-32.3,134.2-111.3c5.9-19.2,8.9-40.8,8.9-64.4V323.7c0-8.3-3.3-15.9-9.3-21.7
				c-6-5.7-13.8-8.6-22.1-8.2l0,0c-15.7,0.7-28.5,14.7-28.5,31.2v443.3c0,9.3-7.6,16.9-16.9,16.9H1759c-9.3,0-16.9-7.6-16.9-16.9
				V320c0-14.4-11.7-26.2-26.1-26.2c-14.4,0-26.2,11.7-26.2,26.2v448.3c0,9.3-7.6,16.9-16.9,16.9h-64.7c-9.3,0-16.9-7.6-16.9-16.9
				V325.1c0-16.5-12.8-30.5-28.4-31.2C1562.3,293.8,1561.8,293.8,1561.3,293.8z M1868.6,277L1868.6,277L1868.6,277z"/>
		</g>
		<g>
			<path class="st5" d="M581,620.6c0,51.8-8.2,101-22.9,144.9c-37.4,53.2-88.1,85.9-143.8,85.9c-115.3,0-208.8-139.5-208.8-311.7
				c0-102.3,33-193.1,84-249.9c16.8-5.3,34.3-8.1,52.3-8.1C473.8,281.6,581,433.4,581,620.6z"/>
		</g>
		<g>
			<path class="st5" d="M1917.6,323.7v444.6c0,26.5-3.5,49.5-9.7,69.3c-20.4,9-42,13.7-64.3,13.7c-68,0-129-44.4-170.8-114.9V320
				c0-23.8,19.3-43.1,43.1-43.1c23.8,0,43.1,19.3,43.1,43.1v448.3h64.9V325.1c0-25.2,19.4-46.9,44.6-48.1
				C1895.4,275.7,1917.6,297.1,1917.6,323.7z"/>
		</g>
		<g>
			<ellipse class="st6" cx="1052.3" cy="1032.4" rx="412.5" ry="412.5"/>
			<path class="st2" d="M1052.3,1461.9c-114.7,0-222.6-44.7-303.7-125.8c-81.1-81.1-125.8-189-125.8-303.7s44.7-222.6,125.8-303.7
				c81.1-81.1,189-125.8,303.7-125.8c114.7,0,222.6,44.7,303.7,125.8c81.1,81.1,125.8,189,125.8,303.7s-44.7,222.6-125.8,303.7
				C1274.9,1417.2,1167,1461.9,1052.3,1461.9z M1052.3,636.8c-218.1,0-395.6,177.5-395.6,395.6s177.5,395.6,395.6,395.6
				s395.6-177.5,395.6-395.6S1270.5,636.8,1052.3,636.8z"/>
		</g>
		<g>
			<path class="st7" d="M423.6,1648.3c0,12.4-2.7,24.2-7.6,34.8c-13.2,28.9-42.4,49.2-76.6,49.2c-48.6,0-87-41-83.9-89.4l5.4-85.1
				h157.6l4.9,85.6C423.6,1645.1,423.6,1646.7,423.6,1648.3z"/>
			<path class="st2" d="M339.6,1749.3c-28.2,0-54.4-11.3-73.6-31.9c-19.3-20.6-29-47.4-27.2-75.5l5.4-85.1
				c0.6-8.9,7.9-15.8,16.9-15.8h157.6c9,0,16.4,7,16.9,15.9l4.9,85.6c0.1,1.8,0.2,3.8,0.2,5.9c0,14.6-3.1,28.6-9.1,41.8
				C415.1,1726.1,379,1749.3,339.6,1749.3z M276.9,1574.8l-4.4,69.2c-1.2,18.7,5.2,36.6,18.1,50.3c12.8,13.7,30.2,21.2,49,21.2
				c26.2,0,50.3-15.4,61.2-39.4c4-8.8,6-18.1,6-27.8c0-1.4,0-2.6-0.1-3.9l-4-69.7L276.9,1574.8L276.9,1574.8z"/>
		</g>
		<g>
			<path class="st8" d="M423.6,1648.3c0,12.4-2.7,24.2-7.6,34.8c-10.6,4.8-22.4,7.5-34.9,7.5c-48.6,0-87-41-83.9-89.4l2.8-43.4
				h118.5l4.9,85.6C423.6,1645.1,423.6,1646.7,423.6,1648.3z"/>
		</g>
		<g>
			<path class="st7" d="M1800.2,1648.3c0,12.4-2.7,24.2-7.6,34.8c-13.2,28.9-42.4,49.2-76.6,49.2c-48.6,0-87-41-83.9-89.4l5.4-85.1
				h157.6l4.9,85.6C1800.1,1645.1,1800.2,1646.7,1800.2,1648.3z"/>
			<path class="st2" d="M1716.1,1749.3c-28.2,0-54.4-11.3-73.6-31.9c-19.3-20.6-29-47.4-27.2-75.5l5.4-85.1
				c0.6-8.9,7.9-15.8,16.9-15.8h157.6c9,0,16.4,7,16.9,15.9l4.9,85.6c0.1,1.8,0.2,3.8,0.2,5.9c0,14.6-3.1,28.6-9.1,41.8
				C1791.6,1726.1,1755.5,1749.3,1716.1,1749.3z M1653.4,1574.8l-4.4,69.2c-1.2,18.7,5.2,36.6,18.1,50.3
				c12.8,13.7,30.2,21.2,49,21.2c26.2,0,50.3-15.4,61.2-39.4c4-8.8,6-18.1,6-27.8c0-1.4,0-2.7-0.1-3.9l-4-69.7L1653.4,1574.8
				L1653.4,1574.8z"/>
		</g>
		<g>
			<path class="st8" d="M1800.2,1648.3c0,12.4-2.7,24.2-7.6,34.8c-10.6,4.8-22.4,7.5-34.9,7.5c-48.6,0-87-41-83.9-89.4l2.8-43.4
				h118.5l4.9,85.6C1800.1,1645.1,1800.2,1646.7,1800.2,1648.3z"/>
		</g>
		<g>
			<path class="st2" d="M339.6,1749.3c-28.2,0-54.4-11.3-73.6-31.9c-19.3-20.6-29-47.4-27.2-75.5l5.4-85.1l37.5-590
				C167.1,928.9,85.4,786.3,85.4,620.7c0-81.6,19.2-158.3,55.6-221.9c36-62.9,86.9-107.4,143.2-125.2c18.7-5.9,38-8.9,57.4-8.9
				c69.6,0,134.6,37.8,183,106.5c47.2,66.9,73.2,155.5,73.2,249.5c0,52.6-8,103.1-23.8,150.3c-33,98.7-96.8,170.8-172.5,195.8
				l33.9,590.1l4.9,85.6c0.1,1.8,0.2,3.8,0.2,5.9C440.6,1704,395.3,1749.3,339.6,1749.3z M341.6,298.5c-15.9,0-31.8,2.5-47.2,7.3
				c-48.2,15.2-92.2,54.2-124,109.7c-33,57.6-51.1,130.4-51.1,205c0,77,19.2,151.7,54.1,210.1c33.7,56.4,79.9,94.5,130.1,107.2
				c7.9,2,13.3,9.3,12.7,17.5l-38.3,603.5l-5.4,85.1c-1.2,18.7,5.2,36.6,18.1,50.3c12.8,13.7,30.2,21.2,49,21.2
				c37.1,0,67.2-30.1,67.2-67.1c0-1.4,0-2.6-0.1-3.9l-4.9-85.7L367,955.3c-0.5-8.1,4.9-15.4,12.7-17.4
				c70.3-17.8,130.9-84.2,162.2-177.7c14.6-43.7,22.1-90.7,22.1-139.6C564,443,464.3,298.5,341.6,298.5z"/>
		</g>
		<g>
			<path class="st2" d="M1716.1,1749.3c-28.2,0-54.4-11.3-73.7-31.9s-29-47.4-27.2-75.5l41.6-654.9v-12.2
				c-57-13.7-159.3-58.9-159.3-206.5V323.7c0-17.3,7.2-34.2,19.8-46.1c12.7-12.1,29.5-18.4,47.1-17.5c34,1.6,60.7,30.2,60.7,65
				v426.4h30.9V320c0-33.1,26.9-60,60-60c33.1,0,60,26.9,60,60v431.4h31.1V325.1c0-34.8,26.7-63.4,60.7-65l0,0
				c17.6-0.8,34.3,5.4,47,17.5c12.5,12,19.8,28.8,19.8,46.1v444.6c0,26.9-3.5,51.9-10.4,74.3c-26.7,86.7-97.4,119.2-145.6,131.3
				l38.4,668.5c1.6,28-8.1,54.7-27.4,75.1C1770.2,1738,1744.1,1749.3,1716.1,1749.3z M1561.3,293.8c-7.7,0-15,2.9-20.7,8.3
				c-6,5.7-9.3,13.4-9.3,21.6v444.6c0,130.2,91.1,166.2,145.4,176.1c8,1.5,13.9,8.5,13.9,16.6v26.4c0,0.4,0,0.7,0,1.1L1649,1644
				c-1.2,18.7,5.2,36.6,18.1,50.2s30.2,21.2,49,21.2c18.7,0,36-7.5,48.9-21.1c12.8-13.6,19.3-31.3,18.2-50l-39.2-682.8
				c-0.5-8.5,5.4-16,13.7-17.6c39.7-7.6,109.9-32.3,134.2-111.3c5.9-19.2,8.9-40.8,8.9-64.4V323.7c0-8.3-3.3-15.9-9.3-21.7
				c-6-5.7-13.8-8.6-22.1-8.2l0,0c-15.7,0.7-28.5,14.7-28.5,31.2v443.3c0,9.3-7.6,16.9-16.9,16.9H1759c-9.3,0-16.9-7.6-16.9-16.9
				V320c0-14.4-11.7-26.2-26.1-26.2c-14.4,0-26.2,11.7-26.2,26.2v448.3c0,9.3-7.6,16.9-16.9,16.9h-64.7c-9.3,0-16.9-7.6-16.9-16.9
				V325.1c0-16.5-12.8-30.5-28.4-31.2C1562.3,293.8,1561.8,293.8,1561.3,293.8z M1868.6,277L1868.6,277L1868.6,277z"/>
		</g>
		<g>
			<path class="st2" d="M339.6,1749.3c-28.2,0-54.4-11.3-73.6-31.9c-19.3-20.6-29-47.4-27.2-75.5l5.4-85.1
				c0.6-8.9,7.9-15.8,16.9-15.8h157.6c9,0,16.4,7,16.9,15.9l4.9,85.6c0.1,1.8,0.2,3.8,0.2,5.9c0,14.6-3.1,28.6-9.1,41.8
				C415.1,1726.1,379,1749.3,339.6,1749.3z M276.9,1574.8l-4.4,69.2c-1.2,18.7,5.2,36.6,18.1,50.3c12.8,13.7,30.2,21.2,49,21.2
				c26.2,0,50.3-15.4,61.2-39.4c4-8.8,6-18.1,6-27.8c0-1.4,0-2.6-0.1-3.9l-4-69.7L276.9,1574.8L276.9,1574.8z"/>
		</g>
		<g>
			<path class="st2" d="M1716.1,1749.3c-28.2,0-54.4-11.3-73.6-31.9c-19.3-20.6-29-47.4-27.2-75.5l5.4-85.1
				c0.6-8.9,7.9-15.8,16.9-15.8h157.6c9,0,16.4,7,16.9,15.9l4.9,85.6c0.1,1.8,0.2,3.8,0.2,5.9c0,14.6-3.1,28.6-9.1,41.8
				C1791.6,1726.1,1755.5,1749.3,1716.1,1749.3z M1653.4,1574.8l-4.4,69.2c-1.2,18.7,5.2,36.6,18.1,50.3
				c12.8,13.7,30.2,21.2,49,21.2c26.2,0,50.3-15.4,61.2-39.4c4-8.8,6-18.1,6-27.8c0-1.4,0-2.7-0.1-3.9l-4-69.7L1653.4,1574.8
				L1653.4,1574.8z"/>
		</g>
		<g>
			<path class="st3" d="M500.7,567.9c-7.9,0-14.9-5.5-16.6-13.5c-17.2-84-65.3-146.5-65.7-147.2c-5.7-7.4-4.4-18,2.9-23.7
				c7.4-5.7,18-4.4,23.7,2.9c2.2,2.8,53.4,69.1,72.2,161.2c1.9,9.1-4,18.1-13.2,20C503,567.8,501.8,567.9,500.7,567.9z"/>
		</g>
		<g>
			<path class="st3" d="M508.9,646.3c-1.2,0-2.5-0.1-3.7-0.4c-9.1-2-14.9-11.1-12.8-20.2c1.5-6.9,0.5-15.3-0.1-17.9
				c-1.8-9.1,4-18.1,13.2-19.9c9.1-1.9,18,3.9,20,13c0.4,1.7,3.4,16.9,0,32.2C523.6,641,516.6,646.3,508.9,646.3z"/>
		</g>
		<g>
			<path class="st3" d="M1089.9,1396.9c-8.7,0-16.1-6.7-16.8-15.6c-0.7-9.3,6.2-17.4,15.5-18.2l0,0c0.4,0,35.2-3,78.2-20
				c56.7-22.3,100.1-57.1,129.1-103.3c5-7.9,15.4-10.3,23.3-5.3c7.9,5,10.3,15.4,5.3,23.3c-32.6,52-83.3,92.6-146.4,117.2
				c-47.5,18.5-85.2,21.7-86.8,21.8C1090.8,1396.9,1090.4,1396.9,1089.9,1396.9z"/>
		</g>
		<g>
			<path class="st3" d="M1340.6,1214.8c-2.8,0-5.7-0.7-8.4-2.2c-8.1-4.6-10.9-15-6.3-23.1l14.4-25.2c4.6-8.1,15-10.9,23.1-6.3
				s10.9,15,6.3,23.1l-14.4,25.2C1352.2,1211.7,1346.5,1214.8,1340.6,1214.8z"/>
		</g>
		<g>
			<path class="st3" d="M1757.4,893.5L1757.4,893.5c0-7.5,4.9-14.1,12-16.2c15.8-4.7,43.5-18.7,61.3-60.4
				c3.7-8.6,13.6-12.6,22.2-8.9c8.6,3.7,12.6,13.6,8.9,22.2c-23,54-59.6,73-82.8,79.7C1768.2,912.9,1757.4,904.7,1757.4,893.5z"/>
		</g>
		<g>
			<path class="st3" d="M1684.8,910.1c-1.5,0-3-0.2-4.5-0.6l-19.6-5.4c-9-2.5-14.3-11.8-11.8-20.8c2.5-9,11.8-14.3,20.8-11.8
				l19.6,5.4c9,2.5,14.3,11.8,11.8,20.8C1699,905.1,1692.2,910.1,1684.8,910.1z"/>
		</g>
		<g>
			<path class="st6" d="M830.8,439.4c-6.2,0-12.1-3.4-15.1-9.2c-4.2-8.3-0.9-18.5,7.4-22.7c3.2-1.6,79.2-39.7,174.3-38.4
				c9.3,0.1,16.8,7.8,16.7,17.2c-0.1,9.3-7.7,16.7-16.9,16.7c-0.1,0-0.2,0-0.3,0c-86.8-1.3-157.7,34.3-158.4,34.7
				C836,438.8,833.3,439.4,830.8,439.4z"/>
		</g>
		<g>
			<path class="st6" d="M1111.4,399.6c-2.1,0-4.2-0.4-6.2-1.2c-7-2.8-22.7-2.8-31.6-1.9c-9.3,0.9-17.6-5.9-18.5-15.1
				c-0.9-9.3,5.8-17.6,15.1-18.5c5-0.5,30.5-2.7,47.5,4.1c8.7,3.4,12.9,13.3,9.5,22C1124.5,395.6,1118.2,399.6,1111.4,399.6z"/>
		</g>
	</g>
</g>
<g id="FLAT_COLORED" class="st0">
	<g class="st1">
		<g>
			<circle class="st3" cx="1035" cy="1023.3" r="420.2"/>
		</g>
		<g>
			<path class="st4" d="M614.8,579.3c-10.6,0-21,1.7-30.9,4.8c-63.3,20-110.6,100-110.6,195.7c0,98.6,50.3,180.6,116.5,197.3
				l-22.7,356.9l-3.2,50.3c-1.8,28.7,20.9,52.9,49.6,52.9c27.6,0,49.7-22.4,49.7-49.7c0-0.9,0-1.9-0.1-2.9l-2.9-50.6l-20.5-356.9
				c45.6-11.5,83.7-54,102.9-111.6c8.7-26,13.5-55,13.5-85.7C756.3,669,692.9,579.3,614.8,579.3z"/>
		</g>
		<g>
			<path class="st4" d="M1517.7,576.5c-14.9,0.7-26.4,13.5-26.4,28.5v262.1h-38.4V602c0-14.1-11.4-25.5-25.5-25.5
				c-14.1,0-25.5,11.4-25.5,25.5v265.1h-38.3V605c0-14.9-11.5-27.7-26.3-28.5c-15.9-0.8-29.1,11.9-29.1,27.7v262.9
				c0,86.3,63.3,108.4,94.2,114v15.6l-24.6,387.6c-1.8,28.7,20.9,52.9,49.6,52.9l0,0c28.6,0,51.3-24,49.7-52.6L1454,980.8
				c25.6-4.9,71.1-20.9,87-72.7c3.6-11.7,5.7-25.3,5.7-41V604.2C1546.7,588.5,1533.6,575.8,1517.7,576.5z"/>
		</g>
		<g>
			<path class="st5" d="M756.3,779.8c0,30.7-4.9,59.7-13.5,85.7c-22.1,31.5-52.1,50.8-85.1,50.8c-68.2,0-123.5-82.5-123.5-184.3
				c0-60.5,19.5-114.2,49.7-147.8c10-3.1,20.3-4.8,30.9-4.8C692.9,579.3,756.3,669,756.3,779.8z"/>
		</g>
		<g>
			<path class="st5" d="M1546.7,604.2v262.9c0,15.7-2.1,29.3-5.7,41c-12.1,5.3-24.8,8.1-38,8.1c-40.2,0-76.3-26.3-101-67.9V602
				c0-14.1,11.4-25.5,25.5-25.5c14.1,0,25.5,11.4,25.5,25.5v265.1h38.4V605c0-14.9,11.5-27.7,26.4-28.5
				C1533.6,575.8,1546.7,588.5,1546.7,604.2z"/>
		</g>
		<g>
			<ellipse class="st6" cx="1035" cy="1023.3" rx="243.9" ry="243.9"/>
		</g>
		<g>
			<path class="st7" d="M663.3,1387.5c0,7.3-1.6,14.3-4.5,20.6c-7.8,17.1-25.1,29.1-45.3,29.1c-28.7,0-51.5-24.2-49.6-52.9l3.2-50.3
				h93.2l2.9,50.6C663.3,1385.6,663.3,1386.5,663.3,1387.5z"/>
		</g>
		<g>
			<path class="st8" d="M663.3,1387.5c0,7.3-1.6,14.3-4.5,20.6c-6.3,2.8-13.2,4.4-20.6,4.4c-28.7,0-51.5-24.2-49.6-52.9l1.6-25.7
				h70.1l2.9,50.6C663.3,1385.6,663.3,1386.5,663.3,1387.5z"/>
		</g>
		<g>
			<path class="st7" d="M1477.3,1387.5c0,7.3-1.6,14.3-4.5,20.6c-7.8,17.1-25.1,29.1-45.3,29.1c-28.7,0-51.5-24.2-49.6-52.9
				l3.2-50.3h93.2l2.9,50.6C1477.2,1385.6,1477.3,1386.5,1477.3,1387.5z"/>
		</g>
		<g>
			<path class="st8" d="M1477.3,1387.5c0,7.3-1.6,14.3-4.5,20.6c-6.3,2.8-13.2,4.4-20.6,4.4c-28.7,0-51.5-24.2-49.6-52.9l1.6-25.7
				h70.1l2.9,50.6C1477.2,1385.6,1477.3,1386.5,1477.3,1387.5z"/>
		</g>
		<g>
			<path class="st3" d="M708.8,748.6c-4.7,0-8.8-3.3-9.8-8c-10.2-49.7-38.6-86.7-38.9-87c-3.4-4.4-2.6-10.6,1.7-14s10.6-2.6,14,1.7
				c1.3,1.6,31.6,40.9,42.7,95.3c1.1,5.4-2.4,10.7-7.8,11.8C710.2,748.5,709.5,748.6,708.8,748.6z"/>
		</g>
		<g>
			<path class="st3" d="M713.7,795c-0.7,0-1.5-0.1-2.2-0.2c-5.4-1.2-8.8-6.5-7.6-11.9c0.9-4.1,0.3-9,0-10.6
				c-1.1-5.4,2.4-10.7,7.8-11.8s10.7,2.3,11.8,7.7c0.2,1,2,10,0,19C722.4,791.8,718.3,795,713.7,795z"/>
		</g>
		<g>
			<path class="st3" d="M1057.3,1238.8c-5.2,0-9.5-4-10-9.2c-0.4-5.5,3.7-10.3,9.2-10.8l0,0c0.2,0,20.8-1.8,46.2-11.8
				c33.5-13.2,59.2-33.8,76.3-61.1c2.9-4.7,9.1-6.1,13.8-3.2c4.7,2.9,6.1,9.1,3.2,13.8c-19.3,30.8-49.2,54.8-86.6,69.3
				c-28.1,11-50.4,12.8-51.3,12.9C1057.8,1238.8,1057.5,1238.8,1057.3,1238.8z"/>
		</g>
		<g>
			<path class="st3" d="M1205.5,1131.1c-1.7,0-3.4-0.4-4.9-1.3c-4.8-2.7-6.5-8.8-3.7-13.6l8.5-14.9c2.7-4.8,8.8-6.5,13.6-3.7
				s6.5,8.8,3.7,13.6l-8.5,14.9C1212.3,1129.3,1209,1131.1,1205.5,1131.1z"/>
		</g>
		<g>
			<path class="st3" d="M1452,941.1L1452,941.1c0-4.4,2.9-8.3,7.1-9.6c9.3-2.8,25.7-11,36.2-35.7c2.2-5.1,8-7.4,13.1-5.3
				s7.4,8,5.3,13.1c-13.6,32-35.2,43.2-48.9,47.1C1458.4,952.6,1452,947.8,1452,941.1z"/>
		</g>
		<g>
			<path class="st3" d="M1409.1,950.9c-0.9,0-1.8-0.1-2.7-0.4l-11.6-3.2c-5.3-1.5-8.4-7-7-12.3c1.5-5.3,7-8.5,12.3-7l11.6,3.2
				c5.3,1.5,8.4,7,7,12.3C1417.5,948,1413.4,950.9,1409.1,950.9z"/>
		</g>
		<g>
			<path class="st6" d="M904,672.6c-3.6,0-7.2-2-8.9-5.5c-2.5-4.9-0.5-10.9,4.4-13.5c1.9-1,46.8-23.5,103-22.7
				c5.5,0.1,9.9,4.6,9.8,10.2c-0.1,5.5-4.5,9.8-10,9.8c0,0-0.1,0-0.2,0c-51.3-0.8-93.3,20.3-93.7,20.5
				C907.1,672.2,905.5,672.6,904,672.6z"/>
		</g>
		<g>
			<path class="st6" d="M1070,649.1c-1.2,0-2.5-0.2-3.7-0.7c-4.1-1.6-13.4-1.6-18.7-1.1c-5.5,0.5-10.4-3.5-10.9-9
				c-0.6-5.5,3.4-10.4,8.9-11c2.9-0.3,18-1.6,28.1,2.4c5.1,2,7.6,7.9,5.6,13C1077.7,646.7,1074,649.1,1070,649.1z"/>
		</g>
	</g>
</g>
</svg>
