<?xml version="1.0" encoding="utf-8"?>
<!-- Generator: Adobe Illustrator 24.1.1, SVG Export Plug-In . SVG Version: 6.00 Build 0)  -->
<svg version="1.1" id="图层_1" xmlns="http://www.w3.org/2000/svg" xmlns:xlink="http://www.w3.org/1999/xlink" x="0px" y="0px"
	 viewBox="0 0 512 512" style="enable-background:new 0 0 512 512;" xml:space="preserve">
<path d="M139.8,202.1l5.5,9.6c4.9,8.5,12.8,14.8,22.3,17.5l33.9,9.7c10.1,2.9,17,12.1,17,22.6v23.4c0,6.4,3.6,12.3,9.4,15.2
	s9.4,8.7,9.4,15.2V338c0,9.1,8.7,15.8,17.5,13.2c9.4-2.7,16.8-10.3,19.2-19.8l1.6-6.6c2.5-9.9,8.9-18.4,17.8-23.4l4.7-2.7
	c8.8-5,14.2-14.4,14.2-24.4v-4.9c0-7.4-3-14.6-8.3-19.9l-2.3-2.3c-5.3-5.3-12.4-8.3-19.9-8.3h-25.3c-6.5,0-12.9-1.7-18.6-4.9
	l-20.2-11.5c-2.5-1.5-4.5-3.8-5.4-6.6c-1.9-5.6,0.6-11.7,6-14.4l3.5-1.8c3.9-1.9,8.4-2.3,12.5-0.9l13.6,4.5
	c4.8,1.6,10.1-0.2,12.8-4.4c2.8-4.1,2.5-9.6-0.7-13.4l-8-9.6c-5.9-7-5.8-17.3,0.2-24.2l9.2-10.7c5.2-6,6-14.6,2.1-21.5l-1.4-2.5
	c-2.1-0.1-4-0.2-6.1-0.2C201.6,117.1,155.5,152.8,139.8,202.1z M377.9,239c0-21.6-5.6-41.8-15.5-59.5l-15,6
	c-9.2,3.7-13.9,13.9-10.8,23.3l9.9,29.7c2.1,6.1,7,10.7,13.2,12.2l17.1,4.3C377.5,249.8,377.8,244.4,377.9,239L377.9,239z M106,239
	c0-82.8,67.2-150,150-150s150,67.2,150,150s-67.2,150-150,150S106,321.8,106,239z"/>
</svg>
