<?xml version="1.0" encoding="utf-8"?>
<!-- Generator: Adobe Illustrator 24.1.1, SVG Export Plug-In . SVG Version: 6.00 Build 0)  -->
<svg version="1.1" id="图层_1" xmlns="http://www.w3.org/2000/svg" xmlns:xlink="http://www.w3.org/1999/xlink" x="0px" y="0px"
	 viewBox="0 0 2020 2020" style="enable-background:new 0 0 2020 2020;" xml:space="preserve">
<style type="text/css">
	.st0{display:none;}
	.st1{display:inline;}
	.st2{fill:#562300;}
	.st3{fill:#F26A06;}
	.st4{fill:#F7872B;}
	.st5{fill:#A9DAFF;}
	.st6{fill:#FFFFFF;}
	.st7{fill:#FD5965;}
	.st8{fill:#5FC592;}
	.st9{fill:#FFD93B;}
	.st10{fill:#F9BD28;}
</style>
<g id="OUTLINE" class="st0">
	<g class="st1">
		<path class="st2" d="M1245.9,940.1v-10.2c0-6.5-0.5-12.9-1.6-19.3c-4.5-26.6-18.3-51-38.9-68.6c-20.9-17.8-47.5-27.7-75-27.7
			h-117.4c-14.4,0-28.5,2.6-41.8,7.8c-18.3,7.1-34.2,18.6-46.7,33.5c-2.2,2.6-4.3,5.4-6.3,8.2c-13.5,19.4-20.7,42.3-20.7,66v9.2
			c-17.8,6.2-29.3,17.7-29.3,31.4c0,6.4,2.5,12.3,7,17.5c-3,5-4.7,10.8-4.7,17c0,9,3.6,17.2,9.5,23.2c-6.1,6.2-9.5,14.5-9.5,23.2
			c0,16.3,11.8,29.9,27.4,32.7c2,19.5,12,36.6,26.6,48.1c11.9,9.3,26.9,14.9,43.2,14.9h208c22.3,0,43.6-10.8,56.8-28.9
			c8-11,12.6-23.8,13.3-37.4c3-1.6,5.8-3.6,8.2-6c5.9-5.9,9.3-13.7,9.7-22c0-0.5,0-1,0-1.4c0-9-3.6-17.2-9.5-23.2
			c5.9-6,9.5-14.2,9.5-23.2c0-4.5-0.9-8.9-2.6-12.8c7.3-6,11.5-13.5,11.5-21.7C1272.6,957.5,1262.2,946.5,1245.9,940.1z
			 M917.4,929.9c0-39.8,23.9-74.7,61-89.1c11-4.3,22.7-6.5,34.6-6.5h117.4c46.9,0,86.5,33.5,94.2,79.6c0.9,5.2,1.3,10.6,1.3,16v4.1
			h-14.7H929.4h-12.1V929.9z M929.4,954.1h281.8c24.9,0,41.4,9.9,41.4,16.4s-16.5,16.4-41.4,16.4c-19.8,0-34.3-6.3-39.4-12.2
			c-1.9-2.2-4.7-3.5-7.6-3.5s-5.7,1.3-7.6,3.5c-5.1,5.9-19.6,12.2-39.4,12.2s-34.3-6.3-39.4-12.2c-1.9-2.2-4.7-3.5-7.6-3.5
			s-5.7,1.3-7.6,3.5c-5.1,5.9-19.6,12.2-39.4,12.2c-19.8,0-34.3-6.3-39.4-12.2c-1.9-2.2-4.7-3.5-7.6-3.5s-5.7,1.3-7.6,3.5
			c-5.1,5.9-19.6,12.2-39.4,12.2c-24.9,0-41.4-9.9-41.4-16.4S904.5,954.1,929.4,954.1z M890.3,1051.4c0-3.5,1.4-6.8,3.9-9.3
			c2.3-2.3,5.4-3.7,8.7-3.8c0.2,0,0.4,0,0.6,0h326.9c7.3,0,13.2,5.9,13.2,13.2c0,0.2,0,0.4,0,0.6c-0.2,3.3-1.5,6.4-3.8,8.7
			c-2.5,2.5-5.8,3.9-9.3,3.9H907.4h-3.8C896.3,1064.6,890.3,1058.7,890.3,1051.4z M1216.2,1106.5c-9.4,12.9-24.6,20.7-40.6,20.7
			h-208c-25.1,0-45.9-18.5-49.7-42.5h307.3C1224.1,1092.5,1221,1099.9,1216.2,1106.5z M1243.7,1005c0,7.3-5.9,13.2-13.2,13.2h0
			H903.5h0c-7.3,0-13.2-5.9-13.2-13.2c0-2,0.4-3.8,1.2-5.5c10.3,4.7,23.3,7.4,37.9,7.4c18.6,0,35.6-4.6,47-12.5
			c11.3,7.8,28.3,12.5,47,12.5s35.6-4.6,47-12.5c11.3,7.8,28.3,12.5,47,12.5s35.6-4.6,47-12.5c11.3,7.8,28.3,12.5,47,12.5
			c11.9,0,22.9-1.8,32.1-5C1243.5,1002.9,1243.7,1003.9,1243.7,1005z"/>
		<path class="st2" d="M1228.3,1215.4h-120.9c-5.5,0-10,4.5-10,10v120.9c0,5.5,4.5,10,10,10h120.9c5.5,0,10-4.5,10-10v-120.9
			C1238.3,1219.8,1233.8,1215.4,1228.3,1215.4z M1218.3,1336.3h-100.9v-100.9h100.9V1336.3z"/>
		<path class="st2" d="M1021.9,1215.4h-97.6H901c-5.5,0-10,4.5-10,10v120.9c0,5.5,4.5,10,10,10h23.4h97.6c5.5,0,10-4.5,10-10v-120.9
			C1031.9,1219.8,1027.4,1215.4,1021.9,1215.4z M1011.9,1336.3H911v-100.9h101L1011.9,1336.3L1011.9,1336.3z"/>
		<path class="st2" d="M1294.1,593.1H967.6c-16.6-76.3-84.7-133.6-165.9-133.6c-31.7,0-62.6,8.8-89.4,25.4
			c-24.1,15-44.2,35.9-58.2,60.5c-14.5,25.4-22.1,54.4-22.1,83.8c0,76.5,50.9,141.3,120.6,162.5v674.9c0,51.8,42.1,93.9,93.9,93.9
			h447.7c22.5,0,44.2-8.1,61.3-22.7c16.8-14.5,28-34.5,31.5-56.4c0.8-4.9,1.2-9.9,1.2-14.8V687
			C1388,635.2,1345.9,593.1,1294.1,593.1z M846.7,792.9c13.5-3.7,26.6-9.1,38.8-16c14.4-8.2,27.5-18.5,38.9-30.4
			c8.1-8.5,15.4-17.8,21.6-27.9c6.2-10,11.3-20.5,15.3-31.4h332.6v701.5v77.6H846.7V792.9z M652,629.2c0-45.7,20.3-87.9,55.2-116.2
			c4.9-4,10.1-7.7,15.6-11.1c23.6-14.7,50.9-22.4,78.9-22.4c82.6,0,149.7,67.2,149.7,149.7c0,28-7.8,55.3-22.4,78.9
			c-3.4,5.5-7.1,10.7-11.1,15.6c-28.3,34.9-70.5,55.2-116.2,55.2C719.2,779,652,711.8,652,629.2z M1368,1466.6
			c0,3.9-0.3,7.8-0.9,11.7c-0.1,0.7-0.2,1.3-0.4,2c-6.5,35-36.7,60.2-72.6,60.2H846.5c-40.7,0-73.9-33.1-73.9-73.9V796.4
			c9.5,1.6,19.2,2.5,29.1,2.5c8.4,0,16.8-0.6,25-1.9v669.5c0,10.9,8.9,19.8,19.8,19.8h447.7c5.6,0,10.6-2.3,14.2-6.1
			c3.4-3.6,5.5-8.4,5.5-13.7V687c0-10.9-8.9-19.8-19.8-19.8h-327c2.8-12.4,4.3-25.1,4.3-38c0-5.4-0.3-10.8-0.8-16.1h323.5
			c40.7,0,73.9,33.1,73.9,73.9V1466.6z"/>
		<path class="st2" d="M873.5,547.2c0-3-1-5.5-3-7.5c-2-2-4.5-3-7.5-3c-1.5,0-3,0.3-4.4,1s-2.7,1.7-3.9,3L738.9,689l-4.6,5.9
			c-1.7,1.8-2.5,4.1-2.5,7c0,2.8,1,5.3,2.9,7.3c2,2,4.4,3,7.4,3c3.2,0,5.8-1.1,7.9-3.4l4.5-5.8l116.7-149.8
			C872.8,551.4,873.5,549.4,873.5,547.2z"/>
		<path class="st2" d="M756.8,625.7c8.1,0,15.5-2.1,22.3-6.2c6.8-4.1,12.1-9.5,16.1-16.2c4-6.7,6-14,6-22.2c0-8.1-2-15.5-6-22.3
			c-4-6.8-9.3-12.1-16.1-16.2s-14.2-6.1-22.3-6.1c-8.3,0-15.7,2-22.5,6.1s-12.1,9.4-16.2,16.2S712,573,712,581.1c0,8,2,15.3,6.1,22
			s9.4,12.2,16.2,16.3C741.1,623.6,748.6,625.7,756.8,625.7z M736,569.2c2.2-3.6,5.1-6.5,8.8-8.7c3.7-2.2,7.7-3.3,12-3.3
			c4.2,0,8.1,1.1,11.7,3.3c3.6,2.2,6.5,5.1,8.7,8.7c2.2,3.6,3.3,7.6,3.3,11.9s-1,8.3-3.2,11.9c-2.1,3.6-5,6.5-8.5,8.7
			c-3.6,2.2-7.6,3.3-11.9,3.3s-8.4-1.1-12-3.3c-3.7-2.2-6.6-5.1-8.8-8.8c-2.2-3.7-3.3-7.6-3.3-11.8
			C732.7,576.8,733.8,572.8,736,569.2z"/>
		<path class="st2" d="M848.1,623.4c-8.3,0-15.7,2-22.4,6.1c-6.7,4-12,9.4-16.1,16.1c-4,6.7-6.1,14.1-6.1,22.4
			c0,8.1,2,15.5,6.1,22.2c4,6.7,9.4,12,16.2,16.1s14.1,6.1,22,6.1c8.2,0,15.7-2,22.5-6.1s12.1-9.4,16.2-16.1
			c4-6.7,6.1-14.1,6.1-22.4s-2-15.7-6.1-22.4s-9.4-12-16.2-16C863.6,625.4,856.2,623.4,848.1,623.4z M868.7,679.6
			c-2.2,3.6-5.1,6.5-8.7,8.7s-7.6,3.3-11.9,3.3s-8.4-1.1-12-3.3c-3.7-2.2-6.6-5.1-8.7-8.7s-3.2-7.5-3.2-11.7c0-4.3,1-8.4,3.2-12
			c2.1-3.7,5-6.6,8.7-8.7c3.7-2.1,7.7-3.2,12-3.2c4.2,0,8.1,1.1,11.8,3.3c3.7,2.2,6.6,5.1,8.8,8.7c2.2,3.6,3.3,7.5,3.3,11.7
			C871.9,672,870.8,676,868.7,679.6z"/>
		<path class="st2" d="M1339.1,784.2c-5.5,0-10,4.5-10,10v126c0,5.5,4.5,10,10,10s10-4.5,10-10v-126
			C1349.1,788.7,1344.6,784.2,1339.1,784.2z"/>
		<path class="st2" d="M1339.1,945.8c-5.5,0-10,4.5-10,10v14.7c0,5.5,4.5,10,10,10s10-4.5,10-10v-14.7
			C1349.1,950.3,1344.6,945.8,1339.1,945.8z"/>
		<path class="st2" d="M945.8,1506h-51.5c-5.5,0-10,4.5-10,10s4.5,10,10,10h51.5c5.5,0,10-4.5,10-10S951.4,1506,945.8,1506z"/>
		<path class="st2" d="M1008,1506h-28.2c-5.5,0-10,4.5-10,10s4.5,10,10,10h28.2c5.5,0,10-4.5,10-10S1013.5,1506,1008,1506z"/>
		<path class="st2" d="M1034.9,731.1h68.1c5.5,0,10-4.5,10-10s-4.5-10-10-10h-68.1c-5.5,0-10,4.5-10,10
			C1024.9,726.6,1029.4,731.1,1034.9,731.1z"/>
		<path class="st2" d="M1138.7,731.1h10.9c5.5,0,10-4.5,10-10s-4.5-10-10-10h-10.9c-5.5,0-10,4.5-10,10S1133.2,731.1,1138.7,731.1z"
			/>
		<path class="st2" d="M910.9,630.8c-0.6,5.5,3.3,10.5,8.8,11.1c0.4,0,0.8,0.1,1.2,0.1c5,0,9.3-3.8,9.9-8.8
			c4.6-39.9-14.8-64.1-15.7-65.1c-3.5-4.3-9.8-4.9-14.1-1.4s-4.9,9.8-1.4,14C900.2,581.3,914.5,599.7,910.9,630.8z"/>
	</g>
</g>
<g id="OUTLINE_FILLED">
	<g>
		<g>
			<path class="st3" d="M1611.7,481.9v1274.6c0,7.4-0.6,14.6-1.7,21.6c-10.4,65.5-67.1,115.5-135.4,115.5H742.7
				c-75.7,0-137.1-61.4-137.1-137.1V481.9c0-70.9,53.9-129.3,122.9-136.4c4.7-0.5,9.4-0.7,14.3-0.7h731.9
				C1550.2,344.7,1611.7,406.1,1611.7,481.9z"/>
			<path class="st2" d="M1474.5,1910H742.7c-84.6,0-153.5-68.9-153.5-153.5V481.9c0-38.2,14.1-74.8,39.8-103.1
				c25.5-28.1,60.2-45.7,97.7-49.6c5.2-0.5,10.6-0.8,15.9-0.8h731.9c84.6,0,153.5,68.9,153.5,153.5v1274.6c0,8-0.6,16.2-1.9,24.2
				c-5.7,35.7-23.9,68.4-51.4,92.2C1546.8,1896.8,1511.3,1910,1474.5,1910z M742.7,361.1c-4.2,0-8.5,0.2-12.6,0.6
				c-61.7,6.4-108.2,58-108.2,120.1v1274.6c0,66.6,54.2,120.8,120.8,120.8h731.9c59.8,0,110-42.8,119.3-101.7
				c1-6.3,1.5-12.7,1.5-19.1V481.9c0-66.6-54.2-120.8-120.8-120.8H742.7z"/>
		</g>
		<g>
			<path class="st4" d="M1611.7,481.9v1274.6c0,7.4-0.6,14.6-1.7,21.6c-4.7,0.5-9.4,0.7-14.3,0.7H863.8
				c-75.7,0-137.1-61.4-137.1-137.1V367.1c0-7.4,0.6-14.6,1.7-21.6c4.7-0.5,9.4-0.7,14.3-0.7h731.9
				C1550.2,344.7,1611.7,406.1,1611.7,481.9z"/>
		</g>
		<g>
			<path class="st5" d="M1490.5,481.9v1274.6c0,8.8-7.2,15.9-15.9,15.9H742.7c-8.8,0-15.9-7.1-15.9-15.9V481.9
				c0-8.8,7.2-15.9,15.9-15.9h731.9C1483.3,465.9,1490.5,473.1,1490.5,481.9z"/>
			<path class="st2" d="M1474.5,1788.8H742.7c-17.8,0-32.3-14.5-32.3-32.3V481.9c0-17.8,14.5-32.3,32.3-32.3h731.9
				c17.8,0,32.3,14.5,32.3,32.3v1274.6C1506.8,1774.3,1492.3,1788.8,1474.5,1788.8z M743,1756.1h731.1V482.3H743V1756.1z"/>
		</g>
		<g>
			<path class="st6" d="M1490.5,481.9v1147.3H885.9c-8.8,0-15.9-7.1-15.9-15.9V465.9h604.5C1483.3,465.9,1490.5,473.1,1490.5,481.9z
				"/>
		</g>
		<g>
			<path class="st7" d="M1370.4,1039.8H836c-20.9,0-37.9-17-37.9-37.9l0,0c0-20.9,17-37.9,37.9-37.9h534.5c20.9,0,37.9,17,37.9,37.9
				l0,0C1408.4,1022.8,1391.4,1039.8,1370.4,1039.8z"/>
			<path class="st2" d="M1370.4,1056.1H836c-29.9,0-54.3-24.3-54.3-54.3s24.3-54.3,54.3-54.3h534.5c29.9,0,54.3,24.3,54.3,54.3
				C1424.7,1031.8,1400.4,1056.1,1370.4,1056.1z M836,980.3c-11.9,0-21.6,9.7-21.6,21.6s9.7,21.6,21.6,21.6h534.5
				c11.9,0,21.6-9.7,21.6-21.6s-9.7-21.6-21.6-21.6H836z"/>
		</g>
		<g>
			<path class="st8" d="M1338.9,902.2c-34.2,0-119.3,0-153.5,0c-34.2,0-119.3,0-153.5,0c-34.2,0-119.3,0-153.5,0
				c-46.4,0-84,19.3-84,43.2c0,23.9,37.6,43.2,84,43.2c34.2,0,63.7-10.5,76.8-25.7c13.1,15.1,42.5,25.7,76.8,25.7
				c34.2,0,63.7-10.5,76.8-25.7c13.1,15.1,42.5,25.7,76.8,25.7c34.2,0,63.7-10.5,76.8-25.7c13.1,15.1,42.5,25.7,76.8,25.7
				c46.4,0,84-19.3,84-43.2C1422.9,921.5,1385.3,902.2,1338.9,902.2z"/>
			<path class="st2" d="M1338.9,1005c-30.4,0-58.2-7.6-76.8-20.4c-18.5,12.8-46.3,20.4-76.8,20.4s-58.2-7.6-76.8-20.4
				c-18.5,12.8-46.3,20.4-76.8,20.4c-30.4,0-58.2-7.6-76.8-20.4c-18.5,12.8-46.3,20.4-76.8,20.4c-57.2,0-100.4-25.6-100.4-59.6
				c0-34,43.1-59.6,100.4-59.6h460.7c57.2,0,100.4,25.6,100.4,59.6C1439.3,979.4,1396.1,1005,1338.9,1005z M1262.1,946.6
				c4.7,0,9.3,2.1,12.4,5.6c8.3,9.6,32.1,20,64.4,20c40.7,0,67.7-16.2,67.7-26.9c0-10.7-27-26.9-67.7-26.9H878.3
				c-40.7,0-67.7,16.2-67.7,26.9c0,10.7,27,26.9,67.7,26.9c32.4,0,56.1-10.4,64.4-20c3.1-3.6,7.6-5.6,12.4-5.6s9.3,2.1,12.4,5.6
				c8.3,9.6,32.1,20,64.4,20c32.4,0,56.1-10.4,64.4-20c3.1-3.6,7.6-5.6,12.4-5.6s9.3,2.1,12.4,5.6c8.3,9.6,32.1,20,64.4,20
				s56.1-10.4,64.4-20C1252.9,948.7,1257.4,946.6,1262.1,946.6z"/>
		</g>
		<g>
			<path class="st4" d="M1379.2,1115.6v3.7c0,21.7-7,41.7-18.9,58c-17.9,24.5-46.9,40.5-79.6,40.5H940.7
				c-54.4,0-98.5-44.1-98.5-98.5v-3.7H1379.2z"/>
			<path class="st2" d="M1280.8,1234.2H940.7c-63.3,0-114.8-51.5-114.8-114.8v-3.7c0-9,7.3-16.3,16.3-16.3h537.1
				c9,0,16.3,7.3,16.3,16.3v3.7c0,24.5-7.6,47.9-22,67.7C1352,1216.5,1317.3,1234.2,1280.8,1234.2z M859.5,1132
				c6.1,39.3,40.2,69.5,81.2,69.5h340.1c26.1,0,51-12.6,66.4-33.8c7.8-10.7,12.8-22.9,14.8-35.8H859.5z"/>
		</g>
		<g>
			<path class="st4" d="M1379.2,879.1v23.1h-537v-23.1c0-73.3,45.7-135.9,110.1-160.9c19.4-7.5,40.4-11.7,62.5-11.7h191.9
				c85.5,0,156.5,62.2,170.2,143.8C1378.4,859.6,1379.2,869.3,1379.2,879.1z"/>
			<path class="st2" d="M1379.2,918.5h-537c-9,0-16.3-7.3-16.3-16.3v-23.1c0-38.8,11.7-76.2,33.8-107.9c21.6-31,51.6-54.6,86.7-68.3
				c21.8-8.5,44.8-12.8,68.4-12.8h191.9c44.9,0,88.5,16.1,122.6,45.2c33.7,28.8,56.4,68.7,63.7,112.2c1.7,10.3,2.6,20.9,2.6,31.5
				v23.1C1395.6,911.2,1388.3,918.5,1379.2,918.5z M858.5,885.8h504.4v-6.8c0-8.7-0.7-17.5-2.2-26.1
				c-12.7-75.4-77.5-130.2-154.1-130.2h-191.9c-19.5,0-38.5,3.5-56.5,10.5c-60.6,23.5-99.7,80.7-99.7,145.7V885.8z"/>
		</g>
		<g>
			<path class="st9" d="M1408.4,1077.7c0,0.6,0,1.1,0,1.7c-0.4,9.8-4.6,18.6-11.1,25.1c-6.9,6.9-16.3,11.1-26.8,11.1H836
				c-20.9,0-37.9-17-37.9-37.9c0-10.5,4.3-19.9,11.1-26.8c6.5-6.5,15.3-10.6,25.1-11.1c0.6,0,1.1,0,1.7,0h534.5
				C1391.4,1039.8,1408.4,1056.8,1408.4,1077.7z"/>
			<path class="st2" d="M1370.4,1132H836c-29.9,0-54.3-24.3-54.3-54.3c0-14.5,5.6-28.1,15.9-38.4c9.6-9.6,22.4-15.2,36-15.8
				c0.8,0,1.6,0,2.4,0h534.5c29.9,0,54.3,24.3,54.3,54.3c0,0.8,0,1.6,0,2.4c-0.6,13.6-6.2,26.4-15.8,36
				C1398.6,1126.3,1384.9,1132,1370.4,1132z M836,1056.1c-0.3,0-0.7,0-1,0c-5.4,0.2-10.4,2.5-14.3,6.3c-4.1,4.1-6.3,9.5-6.3,15.3
				c0,11.9,9.7,21.6,21.6,21.6h534.5c5.8,0,11.2-2.2,15.3-6.3c3.8-3.8,6-8.9,6.3-14.3c0-0.3,0-0.6,0-1c0-11.9-9.7-21.6-21.6-21.6
				L836,1056.1L836,1056.1z"/>
		</g>
		<g>
			<rect x="1169.2" y="1362.1" class="st7" width="197.7" height="197.7"/>
			<path class="st2" d="M1366.9,1576.2h-197.7c-9,0-16.3-7.3-16.3-16.3v-197.7c0-9,7.3-16.3,16.3-16.3h197.7c9,0,16.3,7.3,16.3,16.3
				v197.7C1383.3,1568.8,1375.9,1576.2,1366.9,1576.2z M1185.5,1543.5h165v-165h-165V1543.5z"/>
		</g>
		<g>
			<rect x="831.8" y="1362.1" class="st8" width="197.7" height="197.7"/>
			<path class="st2" d="M1029.5,1576.2H831.8c-9,0-16.3-7.3-16.3-16.3v-197.7c0-9,7.3-16.3,16.3-16.3h197.7c9,0,16.3,7.3,16.3,16.3
				v197.7C1045.8,1568.8,1038.5,1576.2,1029.5,1576.2z M848.1,1543.5h165v-165h-165V1543.5z"/>
		</g>
		<g>
			<path class="st2" d="M1474.5,1910H742.7c-84.6,0-153.5-68.9-153.5-153.5V481.9c0-38.2,14.1-74.8,39.8-103.1
				c25.5-28.1,60.2-45.7,97.7-49.6c5.2-0.5,10.6-0.8,15.9-0.8h731.9c84.6,0,153.5,68.9,153.5,153.5v1274.6c0,8-0.6,16.2-1.9,24.2
				c-5.7,35.7-23.9,68.4-51.4,92.2C1546.8,1896.8,1511.3,1910,1474.5,1910z M742.7,361.1c-4.2,0-8.5,0.2-12.6,0.6
				c-61.7,6.4-108.2,58-108.2,120.1v1274.6c0,66.6,54.2,120.8,120.8,120.8h731.9c59.8,0,110-42.8,119.3-101.7
				c1-6.3,1.5-12.7,1.5-19.1V481.9c0-66.6-54.2-120.8-120.8-120.8H742.7z"/>
		</g>
		<g>
			<path class="st2" d="M1474.5,1788.8H742.7c-17.8,0-32.3-14.5-32.3-32.3V481.9c0-17.8,14.5-32.3,32.3-32.3h731.9
				c17.8,0,32.3,14.5,32.3,32.3v1274.6C1506.8,1774.3,1492.3,1788.8,1474.5,1788.8z M743,1756.1h731.1V482.3H743V1756.1z"/>
		</g>
		<g>
			<path class="st10" d="M930.6,387.5c0,50.5-14.3,97.6-39.1,137.6c-46.1,74.2-128.3,123.6-222,123.6
				c-144.2,0-261.1-116.9-261.1-261.1c0-93.7,49.4-176,123.6-222c39.9-24.8,87.1-39.1,137.6-39.1
				C813.7,126.3,930.6,243.3,930.6,387.5z"/>
			<path class="st2" d="M669.5,665C516.5,665,392,540.5,392,387.5c0-48.1,12.5-95.4,36.1-137c22.9-40.3,55.8-74.5,95.2-98.9
				c43.8-27.2,94.3-41.6,146.2-41.6c153,0,277.5,124.5,277.5,277.5c0,51.9-14.4,102.4-41.6,146.2c-24.4,39.4-58.7,72.3-98.9,95.2
				C764.9,652.5,717.5,665,669.5,665z M669.5,142.7c-45.7,0-90.3,12.7-128.9,36.7c-72.6,45-115.9,122.8-115.9,208.1
				c0,135,109.8,244.8,244.8,244.8c85.3,0,163.1-43.3,208.1-115.8c24-38.6,36.7-83.2,36.7-128.9
				C914.3,252.5,804.5,142.7,669.5,142.7z"/>
		</g>
		<g>
			<path class="st9" d="M930.6,387.5c0,50.5-14.3,97.6-39.1,137.6c-39.9,24.8-87.1,39.1-137.6,39.1
				c-144.2,0-261.1-116.9-261.1-261.1c0-50.5,14.3-97.6,39.1-137.6c39.9-24.8,87.1-39.1,137.6-39.1
				C813.7,126.3,930.6,243.3,930.6,387.5z"/>
		</g>
		<g>
			<g>
				<path class="st2" d="M596.1,381.6c-13.5,0-25.7-3.4-36.8-10.1s-19.8-15.6-26.5-26.6c-6.6-11-9.9-23-9.9-36
					c0-13.2,3.3-25.4,9.9-36.4c6.6-11,15.4-19.8,26.5-26.5s23.3-9.9,36.8-9.9c13.2,0,25.4,3.3,36.4,9.9c11,6.6,19.8,15.4,26.3,26.5
					c6.5,11,9.7,23.2,9.7,36.4c0,13.2-3.3,25.3-9.7,36.2c-6.5,10.9-15.3,19.7-26.3,26.5C621.4,378.3,609.3,381.6,596.1,381.6z
					 M572.2,523.2c-4.9,0-8.9-1.7-12.1-5c-3.2-3.3-4.8-7.3-4.8-12s1.3-8.5,4-11.4L756,242.7c2-2.2,4.1-3.9,6.4-5
					c2.3-1.1,4.7-1.7,7.2-1.7c4.9,0,9,1.7,12.3,5c3.3,3.3,5,7.4,5,12.3c0,3.7-1.2,7-3.7,9.9L585,517.6
					C581.6,521.3,577.3,523.2,572.2,523.2z M596.1,347.8c7.1,0,13.6-1.8,19.5-5.3c5.9-3.5,10.5-8.3,14-14.2
					c3.4-5.9,5.1-12.4,5.1-19.5c0-7.1-1.8-13.6-5.3-19.5c-3.6-5.9-8.3-10.6-14.2-14.2c-5.9-3.5-12.3-5.3-19.1-5.3
					c-7.1,0-13.7,1.8-19.7,5.3c-6,3.5-10.8,8.3-14.3,14.2c-3.5,5.9-5.3,12.4-5.3,19.5c0,6.9,1.8,13.3,5.3,19.3s8.3,10.8,14.3,14.3
					C582.4,346,588.9,347.8,596.1,347.8z M745,523.2c-13,0-25-3.3-36-9.9c-11-6.6-19.8-15.4-26.5-26.3c-6.6-10.9-9.9-23-9.9-36.2
					c0-13.5,3.3-25.7,9.9-36.6c6.6-10.9,15.4-19.7,26.3-26.3c10.9-6.6,23.1-9.9,36.6-9.9c13.2,0,25.4,3.3,36.4,9.7
					c11,6.5,19.8,15.2,26.5,26.1c6.6,10.9,9.9,23.1,9.9,36.6c0,13.5-3.3,25.7-9.9,36.6c-6.6,10.9-15.4,19.7-26.5,26.3
					C770.7,519.9,758.4,523.2,745,523.2z M745.3,489.4c7.1,0,13.6-1.8,19.5-5.3s10.6-8.3,14.2-14.2c3.5-5.9,5.3-12.4,5.3-19.5
					c0-6.9-1.8-13.2-5.3-19.1c-3.5-5.9-8.3-10.6-14.3-14.2c-6-3.5-12.4-5.3-19.3-5.3c-7.1,0-13.7,1.7-19.7,5.1
					c-6,3.4-10.7,8.2-14.2,14.2c-3.4,6-5.1,12.6-5.1,19.7c0,6.9,1.7,13.2,5.1,19.1c3.4,5.9,8.1,10.6,14.2,14.2
					C731.7,487.6,738.2,489.4,745.3,489.4z"/>
			</g>
		</g>
		<g>
			<path class="st2" d="M669.5,665C516.5,665,392,540.5,392,387.5c0-48.1,12.5-95.4,36.1-137c22.9-40.3,55.8-74.5,95.2-98.9
				c43.8-27.2,94.3-41.6,146.2-41.6c153,0,277.5,124.5,277.5,277.5c0,51.9-14.4,102.4-41.6,146.2c-24.4,39.4-58.7,72.3-98.9,95.2
				C764.9,652.5,717.5,665,669.5,665z M669.5,142.7c-45.7,0-90.3,12.7-128.9,36.7c-72.6,45-115.9,122.8-115.9,208.1
				c0,135,109.8,244.8,244.8,244.8c85.3,0,163.1-43.3,208.1-115.8c24-38.6,36.7-83.2,36.7-128.9
				C914.3,252.5,804.5,142.7,669.5,142.7z"/>
		</g>
		<g>
			<path class="st6" d="M1548,879.7c-9,0-16.3-7.3-16.3-16.3V657.2c0-9,7.3-16.3,16.3-16.3c9,0,16.3,7.3,16.3,16.3v206.1
				C1564.4,872.3,1557.1,879.7,1548,879.7z"/>
		</g>
		<g>
			<path class="st6" d="M1548,961.8c-9,0-16.3-7.3-16.3-16.3v-24c0-9,7.3-16.3,16.3-16.3c9,0,16.3,7.3,16.3,16.3v24
				C1564.4,954.4,1557.1,961.8,1548,961.8z"/>
		</g>
		<g>
			<path class="st6" d="M905.1,1853.6h-84.3c-9,0-16.3-7.3-16.3-16.3c0-9,7.3-16.3,16.3-16.3h84.3c9,0,16.3,7.3,16.3,16.3
				C921.5,1846.3,914.1,1853.6,905.1,1853.6z"/>
		</g>
		<g>
			<path class="st6" d="M1006.8,1853.6h-46c-9,0-16.3-7.3-16.3-16.3c0-9,7.3-16.3,16.3-16.3h46c9,0,16.3,7.3,16.3,16.3
				C1023.1,1846.3,1015.8,1853.6,1006.8,1853.6z"/>
		</g>
		<g>
			<path class="st5" d="M1162,554.1h-111.3c-9,0-16.3-7.3-16.3-16.3s7.3-16.3,16.3-16.3H1162c9,0,16.3,7.3,16.3,16.3
				S1171,554.1,1162,554.1z"/>
		</g>
		<g>
			<path class="st5" d="M1238.3,554.1h-17.9c-9,0-16.3-7.3-16.3-16.3s7.3-16.3,16.3-16.3h17.9c9,0,16.3,7.3,16.3,16.3
				S1247.3,554.1,1238.3,554.1z"/>
		</g>
		<g>
			<path class="st6" d="M864.2,408.2c-0.6,0-1.3,0-1.9-0.1c-9-1-15.4-9.2-14.4-18.1c5.9-50.8-17.5-80.8-18.5-82.1
				c-5.7-7-4.7-17.2,2.3-23c7-5.7,17.3-4.7,23,2.3c1.4,1.7,33.2,41.3,25.6,106.5C879.4,402.1,872.4,408.2,864.2,408.2z"/>
		</g>
	</g>
</g>
<g id="FLAT_COLORED" class="st0">
	<g class="st1">
		<g>
			<path class="st3" d="M1378,687v779.7c0,4.5-0.4,8.9-1,13.2c-6.3,40-41,70.7-82.8,70.7H846.5c-46.3,0-83.9-37.6-83.9-83.9V687
				c0-43.4,33-79.1,75.2-83.4c2.9-0.3,5.8-0.4,8.7-0.4h447.7C1340.4,603.1,1378,640.6,1378,687z"/>
		</g>
		<g>
			<path class="st4" d="M1378,687v779.7c0,4.5-0.4,8.9-1,13.2c-2.9,0.3-5.8,0.4-8.7,0.4H920.6c-46.3,0-83.9-37.6-83.9-83.9V616.8
				c0-4.5,0.4-8.9,1-13.2c2.9-0.3,5.8-0.4,8.7-0.4h447.7C1340.4,603.1,1378,640.6,1378,687z"/>
		</g>
		<g>
			<path class="st5" d="M1303.9,687v779.7c0,5.4-4.4,9.8-9.8,9.8H846.5c-5.4,0-9.8-4.4-9.8-9.8V687c0-5.4,4.4-9.8,9.8-9.8h447.7
				C1299.5,677.2,1303.9,681.6,1303.9,687z"/>
		</g>
		<g>
			<path class="st6" d="M1303.9,687v701.8H934.1c-5.4,0-9.8-4.4-9.8-9.8V677.2h369.8C1299.5,677.2,1303.9,681.6,1303.9,687z"/>
		</g>
		<g>
			<path class="st7" d="M1230.5,1028.2H903.5c-12.8,0-23.2-10.4-23.2-23.2l0,0c0-12.8,10.4-23.2,23.2-23.2h326.9
				c12.8,0,23.2,10.4,23.2,23.2l0,0C1253.7,1017.8,1243.3,1028.2,1230.5,1028.2z"/>
		</g>
		<g>
			<path class="st8" d="M1211.2,944.1c-20.9,0-73,0-93.9,0s-73,0-93.9,0s-73,0-93.9,0c-28.4,0-51.4,11.8-51.4,26.4
				s23,26.4,51.4,26.4c20.9,0,39-6.5,47-15.7c8,9.2,26,15.7,47,15.7c20.9,0,39-6.5,47-15.7c8,9.2,26,15.7,47,15.7s39-6.5,47-15.7
				c8,9.2,26,15.7,47,15.7c28.4,0,51.4-11.8,51.4-26.4S1239.6,944.1,1211.2,944.1z"/>
		</g>
		<g>
			<path class="st4" d="M1235.9,1074.6v2.3c0,13.3-4.3,25.5-11.6,35.5c-11,15-28.7,24.8-48.7,24.8h-208c-33.3,0-60.2-27-60.2-60.2
				v-2.3H1235.9z"/>
		</g>
		<g>
			<path class="st4" d="M1235.9,929.9v14.1H907.4v-14.1c0-44.8,27.9-83.1,67.3-98.4c11.8-4.6,24.7-7.1,38.2-7.1h117.4
				c52.3,0,95.7,38,104.1,88C1235.4,918,1235.9,923.9,1235.9,929.9z"/>
		</g>
		<g>
			<path class="st9" d="M1253.7,1051.4c0,0.3,0,0.7,0,1c-0.3,6-2.8,11.4-6.8,15.4c-4.2,4.2-10,6.8-16.4,6.8H903.5
				c-12.8,0-23.2-10.4-23.2-23.2c0-6.4,2.6-12.2,6.8-16.4c4-4,9.4-6.5,15.4-6.8c0.3,0,0.7,0,1,0h326.9
				C1243.3,1028.2,1253.7,1038.6,1253.7,1051.4z"/>
		</g>
		<g>
			<rect x="1107.4" y="1225.4" class="st7" width="120.9" height="120.9"/>
		</g>
		<g>
			<rect x="901" y="1225.4" class="st8" width="121" height="120.9"/>
		</g>
		<g>
			<path class="st10" d="M961.4,629.2c0,30.9-8.8,59.7-23.9,84.2C909.3,758.7,859,789,801.7,789C713.5,789,642,717.4,642,629.2
				c0-57.3,30.2-107.6,75.6-135.8c24.4-15.2,53.3-23.9,84.1-23.9C889.9,469.5,961.4,541,961.4,629.2z"/>
		</g>
		<g>
			<path class="st9" d="M961.4,629.2c0,30.9-8.8,59.7-23.9,84.2c-24.4,15.2-53.3,23.9-84.2,23.9c-88.2,0-159.7-71.5-159.7-159.7
				c0-30.9,8.8-59.7,23.9-84.2c24.4-15.2,53.3-23.9,84.1-23.9C889.9,469.5,961.4,541,961.4,629.2z"/>
		</g>
		<g>
			<g>
				<path class="st3" d="M756.8,625.7c-8.3,0-15.7-2.1-22.5-6.2s-12.1-9.6-16.2-16.3c-4-6.8-6.1-14.1-6.1-22c0-8.1,2-15.5,6.1-22.3
					c4-6.8,9.4-12.1,16.2-16.2s14.2-6.1,22.5-6.1c8.1,0,15.5,2,22.3,6.1c6.8,4,12.1,9.4,16.1,16.2c4,6.8,6,14.2,6,22.3
					c0,8.1-2,15.5-6,22.2c-4,6.7-9.3,12.1-16.1,16.2C772.3,623.6,764.9,625.7,756.8,625.7z M742.2,712.2c-3,0-5.5-1-7.4-3
					c-2-2-2.9-4.5-2.9-7.3s0.8-5.2,2.5-7l120.3-154.3c1.2-1.3,2.5-2.4,3.9-3c1.4-0.7,2.9-1,4.4-1c3,0,5.5,1,7.5,3c2,2,3,4.5,3,7.5
					c0,2.3-0.8,4.3-2.3,6.1L750.1,708.8C748,711.1,745.3,712.2,742.2,712.2z M756.8,605c4.3,0,8.3-1.1,11.9-3.3s6.4-5.1,8.5-8.7
					s3.2-7.6,3.2-11.9s-1.1-8.3-3.3-11.9c-2.2-3.6-5.1-6.5-8.7-8.7c-3.6-2.2-7.5-3.3-11.7-3.3c-4.3,0-8.4,1.1-12,3.3
					c-3.7,2.2-6.6,5.1-8.8,8.7c-2.2,3.6-3.3,7.6-3.3,11.9c0,4.2,1.1,8.1,3.3,11.8s5.1,6.6,8.8,8.8C748.5,603.9,752.5,605,756.8,605z
					 M847.9,712.2c-8,0-15.3-2-22-6.1s-12.1-9.4-16.2-16.1c-4-6.7-6.1-14-6.1-22.2c0-8.2,2-15.7,6.1-22.4s9.4-12,16.1-16.1
					c6.7-4,14.1-6.1,22.4-6.1c8.1,0,15.5,2,22.3,6c6.8,4,12.1,9.3,16.2,16s6.1,14.1,6.1,22.4c0,8.3-2,15.7-6.1,22.4
					c-4,6.7-9.4,12-16.2,16.1C863.6,710.2,856.1,712.2,847.9,712.2z M848.1,691.5c4.3,0,8.3-1.1,11.9-3.3s6.5-5.1,8.7-8.7
					c2.2-3.6,3.3-7.6,3.3-11.9c0-4.2-1.1-8.1-3.3-11.7c-2.2-3.6-5.1-6.5-8.8-8.7c-3.7-2.2-7.6-3.3-11.8-3.3c-4.3,0-8.4,1-12,3.2
					c-3.7,2.1-6.6,5-8.7,8.7s-3.2,7.7-3.2,12c0,4.2,1,8.1,3.2,11.7c2.1,3.6,5,6.5,8.7,8.7C839.7,690.5,843.8,691.5,848.1,691.5z"/>
			</g>
		</g>
		<g>
			<path class="st6" d="M1339.1,930.3c-5.5,0-10-4.5-10-10V794.2c0-5.5,4.5-10,10-10s10,4.5,10,10v126
				C1349.1,925.8,1344.6,930.3,1339.1,930.3z"/>
		</g>
		<g>
			<path class="st6" d="M1339.1,980.5c-5.5,0-10-4.5-10-10v-14.7c0-5.5,4.5-10,10-10s10,4.5,10,10v14.7
				C1349.1,976,1344.6,980.5,1339.1,980.5z"/>
		</g>
		<g>
			<path class="st6" d="M945.8,1526h-51.5c-5.5,0-10-4.5-10-10s4.5-10,10-10h51.5c5.5,0,10,4.5,10,10S951.4,1526,945.8,1526z"/>
		</g>
		<g>
			<path class="st6" d="M1008,1526h-28.2c-5.5,0-10-4.5-10-10s4.5-10,10-10h28.2c5.5,0,10,4.5,10,10S1013.5,1526,1008,1526z"/>
		</g>
		<g>
			<path class="st5" d="M1103,731.1h-68.1c-5.5,0-10-4.5-10-10s4.5-10,10-10h68.1c5.5,0,10,4.5,10,10S1108.5,731.1,1103,731.1z"/>
		</g>
		<g>
			<path class="st5" d="M1149.6,731.1h-10.9c-5.5,0-10-4.5-10-10s4.5-10,10-10h10.9c5.5,0,10,4.5,10,10S1155.1,731.1,1149.6,731.1z"
				/>
		</g>
		<g>
			<path class="st6" d="M920.8,641.9c-0.4,0-0.8,0-1.2-0.1c-5.5-0.6-9.4-5.6-8.8-11.1c3.6-31.1-10.7-49.4-11.3-50.2
				c-3.5-4.3-2.9-10.5,1.4-14c4.3-3.5,10.6-2.8,14.1,1.4c0.8,1,20.3,25.3,15.7,65.1C930.1,638.2,925.8,641.9,920.8,641.9z"/>
		</g>
	</g>
</g>
</svg>
