<?xml version="1.0" encoding="utf-8"?>
<!-- Generator: Adobe Illustrator 24.1.1, SVG Export Plug-In . SVG Version: 6.00 Build 0)  -->
<svg version="1.1" id="图层_1" xmlns="http://www.w3.org/2000/svg" xmlns:xlink="http://www.w3.org/1999/xlink" x="0px" y="0px"
	 viewBox="0 0 2020 2020" style="enable-background:new 0 0 2020 2020;" xml:space="preserve">
<style type="text/css">
	.st0{display:none;}
	.st1{display:inline;}
	.st2{fill:#562300;}
	.st3{fill:#F7872B;}
	.st4{fill:#F9BD28;}
	.st5{fill:#F26A06;}
	.st6{fill:#FFD93B;}
	.st7{fill:#A9DAFF;}
	.st8{fill:#FFFFFF;}
</style>
<g id="OUTLINE" class="st0">
	<g class="st1">
		<path class="st2" d="M1139.2,904.3c10.5,8.7,23,15.3,37.1,19.7c5.9,1.8,11.9,3.3,18.2,4.3v4.6c0,7.5,2.8,14.4,8,19.5
			c5.1,5.1,12.1,7.9,19.5,7.9c7.4,0,14.3-3,19.4-8.3c4.8-5.2,7.4-11.8,7.4-19.1v-5.8c2.6-0.6,5.2-1.3,7.8-2.1
			c12.2-3.7,23.3-9.2,32.8-16.5c10-7.6,18-17.3,23.8-28.8c5.9-11.5,8.8-24.8,8.8-39.4c0-25.9-9-47.2-26.7-63.3l0,0
			c-12.3-11.1-27.9-19.1-46.5-23.8v-46.9c4.8,3.8,8.7,8.3,11.5,13.5l0.1,0.1c0.1,0.1,0.1,0.2,0.2,0.3l0.1,0.2
			c4.3,7.4,10.8,12.7,18.8,15.3c3.2,1.1,6.4,1.6,9.6,1.6c5.9,0,11.5-1.8,16.5-5.3c7.4-4.7,12.2-12,13.4-20.7
			c1.1-7.7-0.7-15.7-5.3-23.5c-5.5-9.8-12.4-18.7-20.7-26.2c-8.6-7.9-18.9-14.1-30.6-18.5c-4.3-1.6-8.9-2.9-13.7-4v-0.5
			c0-9.8-4.2-16.1-7.8-19.7c-5-5-11.8-7.8-19-7.8c-7.4,0-14,2.6-19.1,7.4c-5.4,5.1-8.3,12.2-8.3,20v0.7c-7.3,1.5-14.4,3.7-21,6.5
			c-15.5,6.4-28,15.9-37.4,28.1c-9.8,12.9-14.8,28.4-14.8,46.1c0,16.1,4.2,30.8,12.5,43.7c8.1,12.6,19.7,23,34.4,30.9
			c8,4.3,16.8,7.7,26.3,10.2v58.8c-2.1-0.7-4.2-1.5-6.2-2.5c-7.4-3.4-12.3-7.6-14.4-12.3c-3.4-7.1-8.3-12.5-14.8-16.1
			c-4.7-2.6-9.8-3.9-14.9-3.9c-2.4,0-4.7,0.3-7.1,0.8c-9.9,2-17.7,7.6-21.8,15.9c-4.1,8.1-4.2,17.4-0.5,26.2
			C1120,884.3,1128.3,895.2,1139.2,904.3z M1133.1,854.6c1.4-2.8,4-4.5,8-5.3c0.2,0,0.4-0.1,0.5-0.1c0.8-0.2,1.7-0.3,2.5-0.3
			c1.8,0,3.5,0.5,5.3,1.4c2.8,1.5,4.9,3.9,6.4,7.1c4.2,9.1,12.3,16.5,24.1,22c7,3.3,14.8,5.6,23.1,6.9c2.9,0.5,5.8-0.4,8.1-2.3
			c2.2-1.9,3.5-4.7,3.5-7.6V797c0-4.8-3.3-8.9-8-9.8c-10.7-2.2-20.4-5.6-28.9-10.1c-11.7-6.3-20.7-14.3-27-24
			c-6.2-9.7-9.3-20.7-9.3-32.9c0-13.2,3.6-24.6,10.7-33.9c7.2-9.4,17-16.7,29.2-21.8c7.6-3.2,15.9-5.4,24.7-6.6
			c4.9-0.7,8.6-4.9,8.6-9.9v-9.1c0-2.4,0.7-4.2,2-5.5c1.4-1.3,3.2-2,5.4-2c2,0,3.6,0.6,4.9,1.9c1.3,1.3,1.9,3.2,1.9,5.5v8.9
			c0,5,3.7,9.3,8.7,9.9c6.5,0.9,12.6,2.3,17.9,4.3c9.3,3.5,17.4,8.4,24.1,14.5c6.7,6.1,12.3,13.3,16.8,21.4c0.1,0.1,0.1,0.2,0.2,0.3
			c2.3,3.8,3.2,7.4,2.8,10.5c-0.4,3-1.9,5.2-4.4,6.7c-0.2,0.1-0.3,0.2-0.5,0.3c-2.6,1.9-5.4,2.2-8.5,1.2c-3.4-1.1-6-3.3-7.9-6.5
			c-4.8-8.8-11.6-16.3-20.2-22.2c-4.6-3.1-10.2-5.5-16.5-7.1c-3-0.7-6.1,0-8.6,1.8c-2.4,1.9-3.8,4.8-3.8,7.9v70.5
			c0,4.8,3.4,8.9,8.1,9.8c18.6,3.6,33.8,10.7,45,20.8c13.4,12.1,20.2,28.4,20.2,48.4c0,11.4-2.2,21.6-6.7,30.4
			c-4.4,8.7-10.5,16.1-18.1,21.9c-7.6,5.8-16.5,10.3-26.4,13.3c-4.4,1.3-9,2.4-13.6,3.1c-4.8,0.8-8.4,5-8.4,9.9v14
			c0,2.2-0.7,4-2,5.4c-1.3,1.4-2.9,2-4.8,2c-2.2,0-4-0.7-5.4-2.1c-1.4-1.4-2.1-3.2-2.1-5.4v-13.3c0-5.1-3.9-9.4-8.9-9.9
			c-8-0.8-15.9-2.5-23.3-4.8c-11.6-3.6-21.8-9-30.3-16c-8.4-7-14.8-15.3-18.8-24.8C1131.7,860.5,1131.7,857.4,1133.1,854.6z"/>
		<path class="st2" d="M1214.5,690.4c0-3-1.4-5.9-3.7-7.8s-5.4-2.6-8.4-2c-7.7,1.6-14.5,4.4-20.2,8.2c-10.7,7-16.1,17.7-16.1,31.7
			c0,7.3,1.6,14,4.9,20.7c3.3,6.7,9.3,12.6,17.9,17.7c3.5,2.1,7.7,3.9,12.5,5.5c1,0.3,2.1,0.5,3.1,0.5c2.1,0,4.1-0.7,5.9-1.9
			c2.6-1.9,4.1-4.9,4.1-8.1V690.4z M1194.5,738.5c-3.3-2.5-4.8-4.7-5.6-6.2c-1.9-3.9-2.8-7.7-2.8-11.8c0-9,3.4-12.5,7.1-15l0,0
			c0.4-0.3,0.8-0.5,1.3-0.8V738.5z"/>
		<path class="st2" d="M1232.8,882.9c1.8,1.3,3.9,2,6,2c0.9,0,1.9-0.1,2.8-0.4c2.2-0.7,4.4-1.4,6.5-2.3c8.7-3.6,15.5-8.7,20.8-15.6
			c5.3-6.9,7.9-15.4,7.9-25.3v-0.1c0.2-12.9-4.4-24.3-13.7-34c-5.2-5.4-12.3-9.8-20.9-12.9c-3.1-1.1-6.5-0.7-9.2,1.2
			s-4.3,4.9-4.3,8.2V875C1228.8,878.1,1230.3,881,1232.8,882.9z M1248.8,821.3c5.6,5.8,8.2,12.1,8.1,19.7c0,0,0,0.1,0,0.1v0.2
			c0,5.6-1.2,9.8-3.8,13.2c-1.3,1.7-2.7,3.1-4.3,4.4L1248.8,821.3L1248.8,821.3z"/>
		<path class="st2" d="M1265.4,1050.4h-198.2h-22.7c-5.5,0-10,4.5-10,10v40.8c0,5.5,4.5,10,10,10h22.7h198.2c5.5,0,10-4.5,10-10
			v-40.8C1275.4,1054.9,1270.9,1050.4,1265.4,1050.4z M1255.4,1091.3h-200.8v-20.8h200.8V1091.3z"/>
		<path class="st2" d="M1389.4,1050.4h-61.6c-5.5,0-10,4.5-10,10v40.8c0,5.5,4.5,10,10,10h61.6c5.5,0,10-4.5,10-10v-40.8
			C1399.4,1054.9,1395,1050.4,1389.4,1050.4z M1379.4,1091.3h-41.6v-20.8h41.6V1091.3z"/>
		<path class="st2" d="M1389.4,1151h-61.6c-5.5,0-10,4.5-10,10v40.8c0,5.5,4.5,10,10,10h61.6c5.5,0,10-4.5,10-10V1161
			C1399.4,1155.4,1395,1151,1389.4,1151z M1379.4,1191.8h-41.6V1171h41.6V1191.8z"/>
		<path class="st2" d="M1389.4,1251.5h-61.6c-2.8,0-5.4,1.2-7.2,3.1c-1.7,1.8-2.8,4.2-2.8,6.9v40.8c0,5.5,4.5,10,10,10h61.6
			c5.5,0,10-4.5,10-10v-40.8c0-2.7-1.1-5.1-2.8-6.9C1394.8,1252.7,1392.3,1251.5,1389.4,1251.5z M1379.4,1292.4h-41.6v-20.8h41.6
			V1292.4z"/>
		<path class="st2" d="M1265.4,1151h-198.2h-22.7c-5.5,0-10,4.5-10,10v40.8c0,5.5,4.5,10,10,10h22.7h198.2c5.5,0,10-4.5,10-10V1161
			C1275.4,1155.4,1270.9,1151,1265.4,1151z M1255.4,1191.8h-200.8V1171h200.8V1191.8z"/>
		<path class="st2" d="M1265.4,1251.5h-198.2h-22.7c-5.5,0-10,4.5-10,10v40.8c0,5.5,4.5,10,10,10h220.8c5.5,0,10-4.5,10-10v-40.8
			c0-2.7-1.1-5.1-2.8-6.9C1270.8,1252.7,1268.3,1251.5,1265.4,1251.5z M1255.4,1292.4h-200.8v-20.8h200.8V1292.4z"/>
		<path class="st2" d="M1476.5,1015.8V628c0-59.2-48.2-107.3-107.3-107.3H853.8c-0.3,0-0.7,0-1,0c-72.9,0-132.3,59.3-132.3,132.3
			v86.6h-167c-5.5,0-10,4.5-10,10v258.1c0,51.6,39.8,94,90.4,98.2c0.8,0.2,1.7,0.3,2.5,0.3h5.5c0,0,0,0,0,0s0,0,0,0h323.1v298.5
			c0,0.3,0,0.6,0,0.8v0.7c0,0.5,0,0.9,0.1,1.4c0.4,3.2,2.3,5.8,5,7.3l65.8,80.8c1.9,2.3,4.7,3.7,7.7,3.7c2.6,0,5.1-1,7-2.8
			c0.3-0.3,0.5-0.5,0.8-0.8l53.6-64.1l12.3,15.1l39.8,48.8c1.9,2.3,4.7,3.7,7.7,3.7c0,0,0.1,0,0.1,0c3,0,5.8-1.3,7.7-3.6l39.5-47.2
			l14.1-16.9l39.9,49.1l12.1,14.9c1.9,2.3,4.7,3.7,7.7,3.7c0,0,0.1,0,0.1,0c3,0,5.8-1.3,7.7-3.6l53.6-64.1l52.1,64
			c0.5,0.6,1,1.1,1.6,1.6c1.7,1.4,3.9,2.1,6.1,2.1c0,0,0.1,0,0.1,0c3,0,5.8-1.3,7.7-3.6l59.3-70.9c1.6-1.8,2.4-4.1,2.4-6.5V1347
			c0-0.1,0-0.1,0-0.2V1016C1476.5,1015.9,1476.5,1015.9,1476.5,1015.8z M1456.5,1336.8H985.1V1026h82.2h389.3v228.6V1336.8z
			 M642,1086.1L642,1086.1c-43.3,0-78.5-35.2-78.5-78.5V759.5h157v199.4v48.7C720.5,1050.9,685.3,1086.1,642,1086.1z M965,1086.1
			H701.4c23.7-18,39.1-46.5,39.1-78.5v-38.7V749.5v-96.6c0-61.9,50.4-112.3,112.3-112.3S965,591,965,652.9L965,1086.1L965,1086.1z
			 M922.6,540.6h446.6c48.2,0,87.3,39.2,87.3,87.3v378H985.1V764.9c0-0.1,0-0.3,0-0.4V652.9C985,605.6,960.1,564,922.6,540.6z
			 M1355.1,1409.7c-0.2-0.3-0.4-0.5-0.7-0.8c-1.9-1.9-4.4-2.9-7.1-2.9c-0.2,0-0.3,0-0.4,0c-2.8,0.1-5.4,1.4-7.2,3.6l-53.6,64.1
			l-52.1-64c-1.9-2.3-4.7-3.7-7.7-3.7c-2.9,0-5.8,1.3-7.7,3.6l-53.6,64.1l-52.1-64c-1.9-2.3-4.7-3.7-7.7-3.7c0,0-0.1,0-0.1,0
			c-1.9,0-3.7,0.6-5.3,1.5c-0.9,0.6-1.7,1.2-2.4,2l-53.7,64.1l-58.7-72.1v-44.7h114.7h356.7v57.9l-49.3,58.9L1355.1,1409.7z"/>
		<path class="st2" d="M1417,823.3c5.5,0,10-4.5,10-10V673c0-5.5-4.5-10-10-10s-10,4.5-10,10v140.4
			C1407,818.9,1411.5,823.3,1417,823.3z"/>
		<path class="st2" d="M1417,884.9c5.5,0,10-4.5,10-10v-15.8c0-5.5-4.5-10-10-10s-10,4.5-10,10v15.8
			C1407,880.5,1411.5,884.9,1417,884.9z"/>
		<path class="st2" d="M591.7,796.7c-5.5,0-10,4.5-10,10V884c0,5.5,4.5,10,10,10s10-4.5,10-10v-77.3
			C601.7,801.2,597.2,796.7,591.7,796.7z"/>
		<path class="st2" d="M591.7,905.5c-5.5,0-10,4.5-10,10v10.3c0,5.5,4.5,10,10,10s10-4.5,10-10v-10.3
			C601.7,909.9,597.2,905.5,591.7,905.5z"/>
		<path class="st2" d="M1006.6,647.3c0.2,5.4,4.6,9.6,10,9.6c0.1,0,0.2,0,0.4,0c5.5-0.2,9.8-4.8,9.6-10.3
			c-1.3-36.3-11.6-59.8-12-60.8c-2.2-5-8.1-7.3-13.2-5.1c-5,2.2-7.3,8.1-5.1,13.2C996.4,594,1005.5,615.1,1006.6,647.3z"/>
	</g>
</g>
<g id="OUTLINE_FILLED">
	<g>
		<g>
			<path class="st3" d="M1802.9,346.4v1372.9l-0.1,0.1l-103.1,123.2L1596,1715.2l0,0l-106.7,127.4l-103.7-127.4l-106.7,127.4
				l-103.7-127.4l-106.7,127.4l-117.6-144.5h-1.5v-1.9l0,0l0,0V584.3L736.8,177.4h897.1C1727.2,177.4,1802.9,253.1,1802.9,346.4z"/>
			<path class="st2" d="M1699.7,1860c0,0-0.1,0-0.1,0c-5.2,0-10.1-2.4-13.4-6.4l-90.4-111.1l-93.2,111.3c-3.3,3.9-8.2,6.2-13.3,6.2
				c0,0-0.1,0-0.1,0c-5.2,0-10.1-2.4-13.4-6.4l-90.4-111.1l-93.2,111.3c-3.3,3.9-8.2,6.2-13.3,6.2c0,0-0.1,0-0.1,0
				c-5.2,0-10.1-2.4-13.4-6.4l-90.4-111.1l-93.2,111.3c-3.3,4-8.2,6.2-13.4,6.2c-5.2,0-10.1-2.4-13.4-6.4l-114.3-140.4
				c-5.2-3-8.8-8.6-8.8-15.1v-1.2c0-0.5,0-1,0-1.5V588.5L721.4,185.4c-2.8-5.4-2.6-11.8,0.5-17c3.1-5.2,8.8-8.4,14.9-8.4h897.1
				c102.8,0,186.4,83.6,186.4,186.4v1372.9c0,4.2-1.5,8.2-4.2,11.3L1713,1853.8C1709.7,1857.7,1704.8,1860,1699.7,1860z
				 M1596,1697.8c4.3,0,8.4,1.6,11.7,4.5c0.7,0.6,1.3,1.3,1.8,1.9l90.4,111.1l85.7-102.3V346.4c0-83.6-68.1-151.7-151.7-151.7H765.5
				l199.2,381.5c1.3,2.5,2,5.2,2,8V1690l102,125.3l93.2-111.3c3.3-3.9,8.2-6.2,13.3-6.2c0,0,0.1,0,0.1,0c5.2,0,10.1,2.4,13.4,6.4
				l90.4,111.1l93.2-111.3c3.3-4,8.3-6.3,13.4-6.2c5.2,0,10.1,2.4,13.4,6.4l90.4,111.1l93.2-111.3c3-3.6,7.4-5.9,12.1-6.2
				C1595.2,1697.8,1595.6,1697.8,1596,1697.8z M1802.9,1719.3L1802.9,1719.3L1802.9,1719.3z"/>
		</g>
		<g>
			<polygon class="st4" points="1802.9,1574.5 1802.9,1719.3 1802.8,1719.5 1699.7,1842.6 1596,1715.2 1596,1715.2 1489.3,1842.6 
				1385.6,1715.2 1278.9,1842.6 1175.2,1715.2 1166,1726.2 1068.5,1842.6 950.9,1698.1 949.3,1698.1 949.3,1696.2 949.3,1696.2 
				949.3,1696.2 949.3,1574.5 			"/>
			<path class="st2" d="M1699.7,1860c0,0-0.1,0-0.1,0c-5.2,0-10.1-2.4-13.4-6.4l-90.4-111.1l-93.2,111.3c-3.3,3.9-8.2,6.2-13.3,6.2
				c0,0-0.1,0-0.1,0c-5.2,0-10.1-2.4-13.4-6.4l-90.4-111.1l-93.2,111.3c-3.3,3.9-8.2,6.2-13.3,6.2c0,0-0.1,0-0.1,0
				c-5.2,0-10.1-2.4-13.4-6.4l-90.4-111.1l-93.2,111.3c-3.3,4-8.2,6.2-13.4,6.2c-5.2,0-10.1-2.4-13.4-6.4l-114.3-140.4
				c-5.3-3-8.8-8.6-8.8-15.1v-1.2c0-0.5,0-1,0-1.5v-120.9c0-9.6,7.8-17.4,17.4-17.4h853.6c9.6,0,17.4,7.8,17.4,17.4v144.8
				c0,4.1-1.5,8.1-4.2,11.3L1713,1853.7C1709.7,1857.7,1704.8,1860,1699.7,1860z M1596,1697.8c4.6,0,9,1.8,12.3,5.1
				c0.4,0.4,0.8,0.9,1.2,1.3l90.4,111.1l85.7-102.3v-121.1H966.7v98.2l102,125.3l93.2-111.3c3.3-3.9,8.2-6.2,13.3-6.2
				c0,0,0.1,0,0.1,0c5.2,0,10.1,2.4,13.4,6.4l90.4,111.1l93.2-111.3c3.3-4,8.3-6.2,13.4-6.2c5.2,0,10.1,2.4,13.4,6.4l90.4,111.1
				l93.2-111.3c3.1-3.7,7.7-6,12.6-6.2C1595.5,1697.8,1595.7,1697.8,1596,1697.8z"/>
		</g>
		<g>
			<path class="st5" d="M736.9,177.4L736.9,177.4c-117.3,0-212.4,95.1-212.4,212.4v548.9H361.1v220.9h163.4h155.3h269.4V389.8
				C949.3,272.4,854.2,177.4,736.9,177.4z"/>
			<path class="st2" d="M949.3,1176.9H361.1c-9.6,0-17.4-7.8-17.4-17.4V938.6c0-9.6,7.8-17.4,17.4-17.4h146.1V389.8
				c0-126.7,103.1-229.8,229.8-229.8s229.8,103.1,229.8,229.8v769.8C966.6,1169.1,958.9,1176.9,949.3,1176.9z M378.4,1142.2h553.5
				V389.8c0-107.5-87.5-195-195-195s-195,87.5-195,195v548.9c0,9.6-7.8,17.4-17.4,17.4H378.4V1142.2z"/>
		</g>
		<g>
			<path class="st3" d="M370.8,1159.5L370.8,1159.5c-84.9,0-153.7-68.8-153.7-153.7V557.6h307.5v448.2
				C524.5,1090.7,455.7,1159.5,370.8,1159.5z"/>
			<path class="st2" d="M370.8,1176.9c-94.3,0-171.1-76.8-171.1-171.1V557.6c0-9.6,7.8-17.4,17.4-17.4h307.5
				c9.6,0,17.4,7.8,17.4,17.4v448.2C541.9,1100.1,465.1,1176.9,370.8,1176.9z M234.4,574.9v430.9c0,75.2,61.2,136.4,136.4,136.4l0,0
				c75.2,0,136.4-61.2,136.4-136.4V574.9H234.4z"/>
		</g>
		<g>
			<path class="st6" d="M1493.8,618.2c-21.9-19.8-51-33.4-86.5-40.3V455.5c9,2.2,16.7,5.5,23,9.8c12.7,8.7,22.7,19.6,29.6,32.6
				l0.1,0.2l0.1,0.2c5.5,9.3,13.3,15.7,23.2,19c3.8,1.3,7.5,1.9,11.2,1.9c6.8,0,13.3-2.1,19.1-6.3c8.8-5.5,14.2-13.7,15.8-23.9
				c1.4-9.5-1-19.5-7.1-29.6c-8.6-15.6-19.6-29.5-32.6-41.4c-13.2-12.2-29.2-21.8-47.5-28.7c-10.6-4-22.4-6.8-35-8.5v-15.5
				c0-11.1-4.6-18-8.5-21.9c-5.5-5.5-12.7-8.4-20.7-8.4c-8.3,0-15.7,2.8-21.3,8.1c-4.1,3.9-9,10.9-9,22.2V381
				c-16.8,2.3-32.6,6.5-47.2,12.6c-24,10-43.5,24.6-57.8,43.3c-14.7,19.2-22.2,42.6-22.2,69.5c0,24.6,6.4,47,19,66.6
				c12.4,19.4,30.4,35.4,53.3,47.7c16.2,8.7,34.7,15.2,54.9,19.3v137.9c-12.8-2-24.7-5.5-35.4-10.5c-16.7-7.8-27.9-17.7-33.5-29.7
				c-4.3-9-10.4-15.8-18.4-20.2c-5.6-3.1-11.6-4.7-17.5-4.7c-2.8,0-5.7,0.4-8.5,1.1c-15.4,3-22.7,11.6-26.1,18.4
				c-4.8,9.5-4.9,20.3-0.4,31c8,19.1,20.7,35.8,37.6,49.7c16.5,13.6,36.2,24.1,58.6,31c14,4.4,28.7,7.4,43.8,9V876
				c0,8.4,3,15.9,8.7,21.6c5.7,5.7,13.2,8.7,21.6,8.7c8.2,0,15.5-3.1,21-9c5.3-5.7,8.2-13,8.2-21.3v-24.4c8.8-1.4,17.5-3.4,25.9-5.9
				c19.2-5.8,36.5-14.5,51.4-25.9c15.3-11.7,27.5-26.5,36.4-44c8.9-17.6,13.4-38,13.4-60.6C1534.5,675.3,1520.8,642.7,1493.8,618.2z
				 M1407.3,775.4V651.9c12.6,4.6,22.5,10.7,29.8,18.2c13.1,13.5,19.3,28.8,18.9,46.7v0.2c0,13.6-3.3,24.5-10.2,33.5
				c-7.2,9.5-16.7,16.5-28.9,21.6C1413.9,773.3,1410.7,774.4,1407.3,775.4z M1318.6,466.5c8.2-5.4,18-9.3,29.2-11.7v111.7
				c-7.1-2.3-13.2-5-18.3-8c-12-7-20.2-14.9-24.4-23.3c-4.5-9.1-6.7-18.3-6.7-28.2C1298.5,488.4,1304.9,475.6,1318.6,466.5z"/>
			<path class="st2" d="M1378.2,923.7c-12.9,0-25-4.9-33.9-13.8c-8.9-8.9-13.8-20.9-13.8-33.9v-8c-10.8-1.8-21.3-4.3-31.5-7.5
				c-24.5-7.6-46.2-19.1-64.5-34.2c-19.1-15.7-33.3-34.6-42.5-56.3c-6.5-15.4-6.2-31.6,0.8-45.6c7.2-14.4,20.6-24.1,37.9-27.6
				c4-1,8.2-1.5,12.3-1.5c9,0,17.7,2.3,25.9,6.8c11.3,6.2,19.9,15.6,25.8,28c3.8,8.3,12.2,15.4,25.1,21.4c3.4,1.6,7,3,10.8,4.3
				V653.8c-16.5-4.4-31.9-10.3-45.8-17.8c-25.5-13.7-45.6-31.7-59.7-53.6c-14.4-22.4-21.7-48-21.7-76c0-30.8,8.7-57.7,25.8-80.1
				c16.2-21.2,38.1-37.6,64.9-48.8c11.5-4.8,23.7-8.5,36.5-11.2v-1.2c0-13.7,5.1-26,14.5-34.8c8.9-8.4,20.4-12.9,33.2-12.9
				c12.6,0,24.3,4.8,33,13.5c6.2,6.2,13.6,17.2,13.6,34.2v0.9c8.3,1.8,16.3,4.1,23.7,6.9c20.4,7.6,38.3,18.5,53.2,32.1
				c14.3,13.1,26.3,28.5,35.9,45.6c8.1,13.6,11.2,27.4,9.2,40.8c-2.2,15-10.5,27.8-23.3,35.9c-8.7,6.1-18.4,9.2-28.7,9.2
				c-5.6,0-11.2-0.9-16.7-2.8c-13.9-4.6-25.2-13.8-32.7-26.6l-0.2-0.3c-0.1-0.2-0.2-0.3-0.3-0.5l-0.1-0.2c-4.9-9-11.6-16.9-20-23.4
				V564c32.4,8.2,59.5,22.1,80.7,41.3l0,0c30.8,27.9,46.4,64.8,46.4,109.9c0,25.3-5.2,48.4-15.3,68.4c-10.1,19.9-24,36.7-41.4,49.9
				c-16.6,12.7-35.8,22.3-57,28.7c-4.4,1.3-8.9,2.5-13.5,3.6V876c0,12.8-4.4,24.3-12.9,33.2C1403,918.6,1391.1,923.7,1378.2,923.7z
				 M1242.9,730.2c-1.4,0-2.9,0.2-4.3,0.5c-0.3,0.1-0.6,0.1-0.9,0.2c-6.9,1.3-11.4,4.3-13.8,9.1c-2.5,5-2.5,10.4,0.1,16.5
				c6.9,16.4,17.9,30.9,32.6,43c14.8,12.2,32.5,21.6,52.7,27.8c12.9,4,26.5,6.8,40.4,8.3c8.8,0.9,15.5,8.4,15.5,17.3V876
				c0,3.8,1.2,6.9,3.6,9.3c2.4,2.4,5.5,3.6,9.3,3.6c3.4,0,6.1-1.1,8.4-3.6c2.3-2.4,3.4-5.6,3.4-9.4v-24.4c0-8.5,6.2-15.8,14.6-17.1
				c8-1.3,16-3.1,23.6-5.4c17.2-5.2,32.6-12.9,45.9-23c13.2-10.1,23.8-22.8,31.5-38c7.7-15.2,11.6-32.9,11.6-52.7
				c0-34.8-11.8-63.1-35-84.1c-19.5-17.7-45.8-29.8-78.2-36.2c-8.1-1.6-14-8.7-14-17V455.5c0-5.3,2.4-10.4,6.7-13.7
				c4.2-3.3,9.7-4.5,14.9-3.2c11,2.7,20.6,6.8,28.6,12.3c15,10.3,26.8,23.3,35.1,38.6c3.3,5.5,7.7,9.2,13.7,11.2
				c5.5,1.8,10.2,1.2,14.8-2.1c0.3-0.2,0.6-0.4,0.9-0.6c4.4-2.8,7-6.6,7.7-11.7c0.8-5.4-0.8-11.5-4.8-18.2c-0.1-0.2-0.2-0.3-0.3-0.5
				c-7.7-13.9-17.5-26.4-29.1-37.1c-11.6-10.6-25.7-19.1-41.9-25.2c-9.4-3.5-19.9-6-31.2-7.5c-8.6-1.1-15.1-8.5-15.1-17.2v-15.5
				c0-4.2-1.1-7.4-3.4-9.6c-2.2-2.2-5-3.3-8.4-3.3c-3.8,0-7,1.1-9.4,3.4c-2.4,2.2-3.5,5.3-3.5,9.5V381c0,8.7-6.4,16-15,17.2
				c-15.3,2.1-29.7,6-42.9,11.5c-21.2,8.8-38.2,21.6-50.7,37.9c-12.3,16.1-18.6,36-18.6,58.9c0,21.2,5.5,40.5,16.2,57.2
				c10.8,16.9,26.6,30.9,46.8,41.8c14.7,7.9,31.6,13.8,50.2,17.6c8.1,1.7,13.9,8.8,13.9,17V778c0,5.1-2.2,9.9-6.1,13.2
				c-3.9,3.3-9,4.7-14,4c-14.4-2.2-27.9-6.3-40.1-11.9c-20.5-9.5-34.6-22.4-41.9-38.2c-2.6-5.6-6.3-9.6-11.1-12.3
				C1249,731,1246,730.2,1242.9,730.2z M1407.3,792.8c-3.7,0-7.4-1.2-10.4-3.5c-4.4-3.3-6.9-8.4-6.9-13.9V651.9
				c0-5.7,2.8-11,7.4-14.2c4.6-3.2,10.6-4,15.9-2.1c15,5.5,27.3,13,36.4,22.4c16.2,16.7,24.2,36.6,23.8,59v0.1
				c0,17.1-4.6,32-13.8,43.9c-9.1,12-20.9,20.8-36.1,27.1c-3.6,1.5-7.5,2.8-11.4,4C1410.6,792.5,1409,792.8,1407.3,792.8z
				 M1424.7,682.2v65.4c2.8-2.3,5.2-4.8,7.4-7.7c4.5-5.9,6.6-13.2,6.6-23v-0.4c0-0.1,0-0.1,0-0.2
				C1439,703.2,1434.5,692.3,1424.7,682.2z M1347.8,583.9c-1.8,0-3.6-0.3-5.4-0.9c-8.3-2.7-15.6-5.9-21.7-9.5
				c-15-8.8-25.5-19.1-31.2-30.7c-5.7-11.5-8.4-23.3-8.4-35.9c0-24.3,9.4-42.8,28-55l0,0c10-6.6,21.8-11.4,35.1-14.2
				c5.1-1.1,10.5,0.2,14.5,3.5c4.1,3.3,6.4,8.3,6.4,13.5v111.7c0,5.6-2.7,10.8-7.2,14.1C1355,582.8,1351.4,583.9,1347.8,583.9z
				 M1330.5,479.6c-0.8,0.5-1.5,0.9-2.2,1.4l0,0c-6.4,4.2-12.3,10.3-12.3,26c0,7.3,1.5,13.8,4.9,20.5c1.3,2.7,4,6.4,9.7,10.8V479.6z
				 M1318.6,466.5L1318.6,466.5L1318.6,466.5z"/>
		</g>
		<g>
			<polygon class="st6" points="1802.9,1574.5 1802.9,1719.3 1802.8,1719.5 1699.7,1842.6 1596,1715.2 1596,1715.2 1489.3,1842.6 
				1385.6,1715.2 1278.9,1842.6 1175.2,1715.2 1166,1726.2 1166,1574.5 			"/>
		</g>
		<g>
			<path class="st2" d="M1699.7,1860c0,0-0.1,0-0.1,0c-5.2,0-10.1-2.4-13.4-6.4l-90.4-111.1l-93.2,111.3c-3.3,3.9-8.2,6.2-13.3,6.2
				c0,0-0.1,0-0.1,0c-5.2,0-10.1-2.4-13.4-6.4l-90.4-111.1l-93.2,111.3c-3.3,3.9-8.2,6.2-13.3,6.2c0,0-0.1,0-0.1,0
				c-5.2,0-10.1-2.4-13.4-6.4l-90.4-111.1l-93.2,111.3c-3.3,4-8.2,6.2-13.4,6.2c-5.2,0-10.1-2.4-13.4-6.4l-114.3-140.4
				c-5.3-3-8.8-8.6-8.8-15.1v-1.2c0-0.5,0-1,0-1.5v-120.9c0-9.6,7.8-17.4,17.4-17.4h853.6c9.6,0,17.4,7.8,17.4,17.4v144.8
				c0,4.1-1.5,8.1-4.2,11.3L1713,1853.7C1709.7,1857.7,1704.8,1860,1699.7,1860z M1596,1697.8c4.6,0,9,1.8,12.3,5.1
				c0.4,0.4,0.8,0.9,1.2,1.3l90.4,111.1l85.7-102.3v-121.1H966.7v98.2l102,125.3l93.2-111.3c3.3-3.9,8.2-6.2,13.3-6.2
				c0,0,0.1,0,0.1,0c5.2,0,10.1,2.4,13.4,6.4l90.4,111.1l93.2-111.3c3.3-4,8.3-6.2,13.4-6.2c5.2,0,10.1,2.4,13.4,6.4l90.4,111.1
				l93.2-111.3c3.1-3.7,7.7-6,12.6-6.2C1595.5,1697.8,1595.7,1697.8,1596,1697.8z"/>
		</g>
		<g>
			<rect x="949.3" y="1020.4" class="st7" width="853.6" height="574.6"/>
			<path class="st2" d="M1803,1612.4H949.3c-9.6,0-17.4-7.8-17.4-17.4v-574.6c0-9.6,7.8-17.4,17.4-17.4H1803
				c9.6,0,17.4,7.8,17.4,17.4V1595C1820.3,1604.6,1812.5,1612.4,1803,1612.4z M966.7,1577.6h818.9v-539.9H966.7V1577.6z"/>
		</g>
		<g>
			<rect x="1109.5" y="1020.4" class="st8" width="693.5" height="414.5"/>
		</g>
		<g>
			<rect x="1070.1" y="1097.6" class="st5" width="383.6" height="71"/>
			<path class="st2" d="M1453.7,1185.9h-383.6c-9.6,0-17.4-7.8-17.4-17.4v-71c0-9.6,7.8-17.4,17.4-17.4h383.6
				c9.6,0,17.4,7.8,17.4,17.4v71C1471,1178.1,1463.2,1185.9,1453.7,1185.9z M1087.4,1151.2h348.8V1115h-348.8V1151.2z"/>
		</g>
		<g>
			<rect x="1562.1" y="1097.6" class="st5" width="106.9" height="71"/>
			<path class="st2" d="M1669,1185.9h-106.9c-9.6,0-17.4-7.8-17.4-17.4v-71c0-9.6,7.8-17.4,17.4-17.4H1669c9.6,0,17.4,7.8,17.4,17.4
				v71C1686.4,1178.1,1678.7,1185.9,1669,1185.9z M1579.5,1151.2h72.2V1115h-72.2V1151.2z"/>
		</g>
		<g>
			<rect x="1562.1" y="1272.2" class="st5" width="106.9" height="71"/>
			<path class="st2" d="M1669,1360.6h-106.9c-9.6,0-17.4-7.8-17.4-17.4v-71c0-9.6,7.8-17.4,17.4-17.4H1669c9.6,0,17.4,7.8,17.4,17.4
				v71C1686.4,1352.8,1678.7,1360.6,1669,1360.6z M1579.5,1325.8h72.2v-36.2h-72.2V1325.8z"/>
		</g>
		<g>
			<rect x="1562.1" y="1446.9" class="st5" width="106.9" height="71"/>
			<path class="st2" d="M1669,1535.2h-106.9c-9.6,0-17.4-7.8-17.4-17.4v-71c0-9.6,7.8-17.4,17.4-17.4H1669c9.6,0,17.4,7.8,17.4,17.4
				v71C1686.4,1527.4,1678.7,1535.2,1669,1535.2z M1579.5,1500.5h72.2v-36.2h-72.2V1500.5z"/>
		</g>
		<g>
			<rect x="1070.1" y="1272.2" class="st5" width="383.6" height="71"/>
			<path class="st2" d="M1453.7,1360.6h-383.6c-9.6,0-17.4-7.8-17.4-17.4v-71c0-9.6,7.8-17.4,17.4-17.4h383.6
				c9.6,0,17.4,7.8,17.4,17.4v71C1471,1352.8,1463.2,1360.6,1453.7,1360.6z M1087.4,1325.8h348.8v-36.2h-348.8V1325.8z"/>
		</g>
		<g>
			<rect x="1070.1" y="1446.9" class="st5" width="383.6" height="71"/>
			<path class="st2" d="M1453.7,1535.2h-383.6c-9.6,0-17.4-7.8-17.4-17.4v-71c0-9.6,7.8-17.4,17.4-17.4h383.6
				c9.6,0,17.4,7.8,17.4,17.4v71C1471,1527.4,1463.2,1535.2,1453.7,1535.2z M1087.4,1500.5h348.8v-36.2h-348.8V1500.5z"/>
		</g>
		<g>
			<path class="st2" d="M1803,1612.4H949.3c-9.6,0-17.4-7.8-17.4-17.4v-574.6c0-9.6,7.8-17.4,17.4-17.4H1803
				c9.6,0,17.4,7.8,17.4,17.4V1595C1820.3,1604.6,1812.5,1612.4,1803,1612.4z M966.7,1577.6h818.9v-539.9H966.7V1577.6z"/>
		</g>
		<g>
			<path class="st8" d="M1716.9,685.8c-9.6,0-17.4-7.8-17.4-17.4V424.6c0-9.6,7.8-17.4,17.4-17.4c9.6,0,17.4,7.8,17.4,17.4v243.8
				C1734.3,678,1726.6,685.8,1716.9,685.8z"/>
		</g>
		<g>
			<path class="st8" d="M1716.9,792.8c-9.6,0-17.4-7.8-17.4-17.4V748c0-9.6,7.8-17.4,17.4-17.4c9.6,0,17.4,7.8,17.4,17.4v27.4
				C1734.3,785,1726.6,792.8,1716.9,792.8z"/>
		</g>
		<g>
			<path class="st8" d="M283.4,808.5c-9.6,0-17.4-7.8-17.4-17.4V656.9c0-9.6,7.8-17.4,17.4-17.4s17.4,7.8,17.4,17.4v134.3
				C300.7,800.8,293,808.5,283.4,808.5z"/>
		</g>
		<g>
			<path class="st8" d="M283.4,880.9c-9.6,0-17.4-7.8-17.4-17.4v-17.8c0-9.6,7.8-17.4,17.4-17.4s17.4,7.8,17.4,17.4v17.8
				C300.7,873.2,293,880.9,283.4,880.9z"/>
		</g>
		<g>
			<path class="st8" d="M1021.5,396.7c-9.3,0-17-7.4-17.4-16.7c-2-55.8-17.8-92.4-17.9-92.8c-3.8-8.8,0.1-19,8.9-22.9
				c8.8-3.9,19,0.1,22.9,8.8c0.8,1.7,18.6,42.6,20.9,105.6c0.3,9.6-7.2,17.6-16.7,18C1021.9,396.7,1021.7,396.7,1021.5,396.7z"/>
		</g>
	</g>
</g>
<g id="FLAT_COLORED" class="st0">
	<g class="st1">
		<g>
			<path class="st3" d="M1466.5,628v790.4l-0.1,0.1l-59.4,70.9l-59.7-73.4l0,0l-61.4,73.4l-59.7-73.4l-61.4,73.4l-59.7-73.4
				l-61.4,73.4l-67.7-83.2h-0.9v-1.1l0,0l0,0V764.9L852.7,530.6h516.5C1422.9,530.6,1466.5,574.2,1466.5,628z"/>
		</g>
		<g>
			<polygon class="st4" points="1466.5,1335 1466.5,1418.4 1466.5,1418.5 1407.1,1489.4 1347.4,1416 1347.4,1416 1285.9,1489.4 
				1226.2,1416 1164.8,1489.4 1105.1,1416 1099.8,1422.3 1043.7,1489.4 976,1406.2 975.1,1406.2 975.1,1405.1 975,1405.1 
				975.1,1405.1 975.1,1335 			"/>
		</g>
		<g>
			<path class="st5" d="M852.8,530.6L852.8,530.6c-67.5,0-122.3,54.8-122.3,122.3v316h-94.1v127.2h94.1h89.4H975V652.9
				C975,585.4,920.3,530.6,852.8,530.6z"/>
		</g>
		<g>
			<path class="st3" d="M642,1096.1L642,1096.1c-48.9,0-88.5-39.6-88.5-88.5V749.5h177v258.1C730.5,1056.5,690.8,1096.1,642,1096.1z
				"/>
		</g>
		<g>
			<path class="st6" d="M1288.6,784.5c-12.6-11.4-29.4-19.2-49.8-23.2v-70.5c5.2,1.3,9.6,3.2,13.2,5.6c7.3,5,13.1,11.3,17.1,18.8
				l0.1,0.1l0.1,0.1c3.1,5.3,7.6,9,13.4,10.9c2.2,0.7,4.3,1.1,6.5,1.1c3.9,0,7.6-1.2,11-3.6c5.1-3.2,8.2-7.9,9.1-13.8
				c0.8-5.5-0.6-11.2-4.1-17.1c-5-9-11.3-17-18.8-23.9c-7.6-7-16.8-12.5-27.4-16.5c-6.1-2.3-12.9-3.9-20.2-4.9v-8.9
				c0-6.4-2.6-10.4-4.9-12.6c-3.2-3.2-7.3-4.8-11.9-4.8c-4.8,0-9,1.6-12.3,4.7c-2.4,2.2-5.2,6.3-5.2,12.8v9.1
				c-9.7,1.3-18.8,3.8-27.2,7.3c-13.8,5.8-25,14.2-33.3,25c-8.5,11.1-12.8,24.5-12.8,40c0,14.2,3.7,27.1,10.9,38.3
				c7.2,11.2,17.5,20.4,30.7,27.5c9.3,5,20,8.7,31.6,11.1v79.4c-7.4-1.2-14.2-3.2-20.4-6.1c-9.6-4.5-16.1-10.2-19.3-17.1
				c-2.4-5.2-6-9.1-10.6-11.6c-3.3-1.8-6.7-2.7-10.1-2.7c-1.6,0-3.3,0.2-4.9,0.6c-8.9,1.7-13.1,6.7-15,10.6
				c-2.8,5.5-2.8,11.7-0.2,17.9c4.6,11,11.9,20.6,21.6,28.6c9.5,7.8,20.9,13.8,33.7,17.9c8.1,2.5,16.5,4.2,25.2,5.2v13.3
				c0,4.9,1.7,9.2,5,12.4c3.3,3.3,7.6,5,12.4,5c4.7,0,8.9-1.8,12.1-5.2c3.1-3.3,4.7-7.5,4.7-12.3v-14c5.1-0.8,10.1-2,14.9-3.4
				c11.1-3.3,21-8.3,29.6-14.9c8.8-6.7,15.8-15.2,21-25.3c5.1-10.1,7.7-21.9,7.7-34.9C1312,817.3,1304.1,798.5,1288.6,784.5z
				 M1238.8,874.9v-71.1c7.2,2.6,13,6.1,17.2,10.5c7.5,7.8,11.1,16.6,10.9,26.9v0.1c0,7.8-1.9,14.1-5.9,19.3
				c-4.2,5.5-9.6,9.5-16.7,12.4C1242.5,873.7,1240.7,874.4,1238.8,874.9z M1187.7,697.1c4.7-3.1,10.3-5.4,16.8-6.7v64.3
				c-4.1-1.3-7.6-2.9-10.5-4.6c-6.9-4-11.6-8.6-14-13.4c-2.6-5.3-3.8-10.6-3.8-16.3C1176.1,709.7,1179.8,702.3,1187.7,697.1z"/>
		</g>
		<g>
			<polygon class="st6" points="1466.5,1335 1466.5,1418.4 1466.5,1418.5 1407.1,1489.4 1347.4,1416 1347.4,1416 1285.9,1489.4 
				1226.2,1416 1164.8,1489.4 1105.1,1416 1099.8,1422.3 1099.8,1335 			"/>
		</g>
		<g>
			<rect x="975.1" y="1016" class="st7" width="491.5" height="330.8"/>
		</g>
		<g>
			<rect x="1067.3" y="1016" class="st8" width="399.3" height="238.6"/>
		</g>
		<g>
			<rect x="1044.6" y="1060.4" class="st5" width="220.8" height="40.8"/>
		</g>
		<g>
			<rect x="1327.9" y="1060.4" class="st5" width="61.6" height="40.8"/>
		</g>
		<g>
			<rect x="1327.9" y="1161" class="st5" width="61.6" height="40.8"/>
		</g>
		<g>
			<rect x="1327.9" y="1261.5" class="st5" width="61.6" height="40.8"/>
		</g>
		<g>
			<rect x="1044.6" y="1161" class="st5" width="220.8" height="40.8"/>
		</g>
		<g>
			<rect x="1044.6" y="1261.5" class="st5" width="220.8" height="40.8"/>
		</g>
		<g>
			<path class="st8" d="M1417,823.3c-5.5,0-10-4.5-10-10V673c0-5.5,4.5-10,10-10s10,4.5,10,10v140.4
				C1427,818.9,1422.6,823.3,1417,823.3z"/>
		</g>
		<g>
			<path class="st8" d="M1417,884.9c-5.5,0-10-4.5-10-10v-15.8c0-5.5,4.5-10,10-10s10,4.5,10,10v15.8
				C1427,880.5,1422.6,884.9,1417,884.9z"/>
		</g>
		<g>
			<path class="st8" d="M591.7,894c-5.5,0-10-4.5-10-10v-77.3c0-5.5,4.5-10,10-10s10,4.5,10,10V884C601.7,889.5,597.2,894,591.7,894
				z"/>
		</g>
		<g>
			<path class="st8" d="M591.7,935.7c-5.5,0-10-4.5-10-10v-10.3c0-5.5,4.5-10,10-10s10,4.5,10,10v10.3
				C601.7,931.2,597.2,935.7,591.7,935.7z"/>
		</g>
		<g>
			<path class="st8" d="M1016.6,656.9c-5.4,0-9.8-4.3-10-9.6c-1.2-32.2-10.2-53.2-10.3-53.4c-2.2-5,0.1-11,5.1-13.2s10.9,0,13.2,5.1
				c0.4,1,10.7,24.5,12,60.8c0.2,5.5-4.1,10.2-9.6,10.3C1016.8,656.9,1016.7,656.9,1016.6,656.9z"/>
		</g>
	</g>
</g>
</svg>
