<?xml version="1.0" encoding="utf-8"?>
<!-- Generator: Adobe Illustrator 24.1.1, SVG Export Plug-In . SVG Version: 6.00 Build 0)  -->
<svg version="1.1" id="图层_1" xmlns="http://www.w3.org/2000/svg" xmlns:xlink="http://www.w3.org/1999/xlink" x="0px" y="0px"
	 viewBox="0 0 2020 2020" style="enable-background:new 0 0 2020 2020;" xml:space="preserve">
<style type="text/css">
	.st0{display:none;}
	.st1{display:inline;}
	.st2{fill:#562300;}
	.st3{fill:#F26A06;}
	.st4{fill:#F7872B;}
	.st5{fill:#2D2D2D;}
	.st6{fill:#F9BD28;}
	.st7{fill:#FFD93B;}
	.st8{fill:#A9DAFF;}
	.st9{fill:#FFFFFF;}
</style>
<g id="OUTLINE" class="st0">
	<g class="st1">
		<path class="st2" d="M1695.3,857.8V641.9h10.7c5.5,0,10-4.5,10-10v-85.7c0-5.5-4.5-10-10-10h-348.8c-5.5,0-10,4.5-10,10v85.7
			c0,5.5,4.5,10,10,10h12.9v214.2c-22.8-2.8-50.2-2.6-82.6,0.3c-43.7,4-91.3,12.7-133.4,20.3c-51.1,9.3-99.4,18.1-126.4,15.8
			c-28.2-2.4-53.2,1.3-74.5,11c-19.2,8.7-34.6,22.2-44.7,38.9c-8,13.3-12.4,28.2-12.7,43.2c-0.1,7,0.6,13.8,2.2,20.4
			c5.3,21.7,13.3,36.6,20.8,46.7c2.7,18.2,8.2,56.3,11.6,95.6c8.9,100.5-2.6,116.2-5,118.3c-4.6,4.1-23.1,13.8-94.6,15.7
			c-29.9,0.8-58.2-0.2-71.2-0.7c-10.2-42.3-60.7-256.5-57.3-317.1c2.7-47.9,35.6-134.6,54.1-179.9c3.3-0.8,6.6-1.6,9.8-2.6
			c4.7,2.2,9.9,3.5,15.5,3.5c19.6,0,35.6-15.6,36.2-35c12.4-13.8,19.1-30.1,19.1-47.3c0-31.6-23.2-60.4-60.7-75.2
			c-16.6-6.6-35.4-10.1-54.5-10.1c-47,0-88.8,20.7-106.5,52.8c-5.7,10.3-8.6,21.3-8.6,32.5c0,5.3,0.6,10.5,1.9,15.6
			c2.6,10.5,7.7,20.3,14.8,29c-26.2,23.7-75.4,70-113.4,117c-41.1,50.9-59,89.1-54.5,117l0,0.1c0.1,0.5,0.1,0.9,0.2,1.3
			c3.6,21,15,57.4,31.2,99.5c-6.9-0.6-13.8-0.8-20.8-0.6c-62.3,2.2-118.1,38.3-145.8,94.1l-3,6.2c-1.2,2.4-1.4,5.1-0.5,7.6
			c0.9,2.5,2.7,4.6,5,5.8l6.8,3.4c-23.9,31.9-35.6,70.9-33,111.2c2.9,44.7,23,85.7,56.7,115.2c30.9,27.1,69.8,41.8,110.5,41.8
			c3.7,0,7.4-0.1,11-0.4c44.7-2.9,85.6-23,115.2-56.7c16.7-19.1,28.7-41.2,35.4-64.9l14.9,7.3c26.5,26.8,51.6,40.3,74.8,40.3
			c0.1,0,0.3,0,0.4,0c20.2-0.1,44.3,0.4,72.3,1c11,0.2,22.5,0.5,34.4,0.7l4.9,0.1c0.1,0,0.1,0,0.2,0h0.2c19.8,0.4,40,0.6,60.5,0.6
			c104.3,0,213.4-6.2,295.6-34.3c0.3,0.9,0.5,1.9,0.8,2.8c12.4,43.1,41.6,78.5,82.3,99.7c25.3,13.2,53.3,19.9,81.6,19.9
			c16.9,0,34-2.4,50.8-7.2c92.8-26.7,147.4-120.7,121.9-209.4c-11.6-40.1-37.7-73.6-74.1-95.1c24.5-22.8,47.1-44.8,66.1-63.7l5.4,12
			c8.5,18.9,23.9,33.3,43.3,40.6c8.9,3.4,18.2,5,27.4,5c10.8,0,21.7-2.3,31.9-6.9c2.4-1.1,4.3-3.1,5.2-5.6s0.8-5.2-0.2-7.7
			l-62.2-137.7c-0.4-1-1-1.8-1.7-2.6c-11.6-23.6-30.7-55.5-56.6-77h184.2c19.7,0,35.7-16,35.7-35.7
			C1724.6,875.4,1711.9,860.8,1695.3,857.8z M1367.1,621.9v-65.7h21.4h307.4v44.2v21.5H1367.1z M1430.3,641.9h245v175v40.3H1390
			V641.9L1430.3,641.9L1430.3,641.9z M927.6,1029.5c-3.8-7.2-7.4-16.4-10.3-28.1c-1.2-4.9-1.8-10-1.7-15.3c0-0.8,0-1.5,0.1-2.3
			c0.6-10.7,4-21.4,9.8-31c16-26.4,46.9-41,86.2-41c4.6,0,9.4,0.2,14.2,0.6c29.6,2.5,76.9-6.1,131.7-16
			c36.1-6.6,76.3-13.9,114.3-18.3c5.8-0.7,11.6-1.3,17.3-1.8c50.6-4.6,87.5-2.2,112.9,7.6c0.1,0,0.2,0.1,0.2,0.1
			c13.6,5.2,23.7,12.5,30.5,22C1330.2,915.8,969.9,1017.4,927.6,1029.5z M781.6,765.5c-9,0-16.3-7.3-16.3-16.3s7.3-16.3,16.3-16.3
			c9,0,16.3,7.3,16.3,16.3S790.6,765.5,781.6,765.5z M632.8,680.4c14-25.4,49.8-42.4,89-42.4c16.5,0,32.8,3,47.1,8.7
			c1.8,0.7,3.5,1.5,5.3,2.2c26.5,12.1,42.8,32.6,42.8,54.4c0,8.3-2.3,16.3-6.6,23.8c-6.6-8.6-17-14.1-28.7-14.1
			c-20,0-36.3,16.3-36.3,36.3c0,5.9,1.4,11.5,4,16.5c-8.8,1.8-18.1,2.8-27.5,2.8c-7,0-14-0.5-20.7-1.6c-34.2-5.3-61.7-23.6-71-46.5
			c-0.8-2.1-1.6-4.2-2.1-6.4c-0.9-3.5-1.3-7.2-1.3-10.8C626.7,695.4,628.8,687.7,632.8,680.4z M474.9,974.7c0-0.4,0-0.9,0-1.4
			c0,0,0,0,0,0c0-0.5,0-0.9,0-1.4c0-0.1,0-0.1,0-0.2c0-0.5,0-0.9,0.1-1.4c0-0.1,0-0.2,0-0.3c0-0.5,0.1-1,0.1-1.5c0-0.1,0-0.2,0-0.3
			c0.1-0.5,0.1-1,0.2-1.6c0-0.1,0-0.1,0-0.2c0.1-0.5,0.2-1,0.3-1.6c0-0.1,0-0.2,0-0.3c0.1-0.5,0.2-1.1,0.3-1.7c0-0.1,0-0.3,0.1-0.4
			c0.1-0.5,0.2-1.1,0.4-1.7c0-0.1,0.1-0.3,0.1-0.4c0.1-0.6,0.3-1.2,0.5-1.8c0-0.1,0.1-0.2,0.1-0.4c0.2-0.6,0.3-1.2,0.5-1.8
			c0-0.1,0-0.2,0.1-0.3c0.2-0.6,0.4-1.3,0.6-1.9c0-0.2,0.1-0.3,0.1-0.5c0.2-0.6,0.4-1.3,0.7-2c0.1-0.2,0.1-0.3,0.2-0.5
			c0.2-0.7,0.5-1.3,0.8-2c0.1-0.2,0.1-0.3,0.2-0.5c0.3-0.7,0.6-1.4,0.9-2.2c0-0.1,0.1-0.3,0.1-0.4c0.3-0.7,0.6-1.4,0.9-2.1
			c0.1-0.2,0.1-0.3,0.2-0.4c0.3-0.8,0.7-1.5,1-2.3c0.1-0.2,0.2-0.4,0.3-0.6c0.4-0.8,0.7-1.5,1.1-2.3c0.1-0.2,0.2-0.4,0.3-0.6
			c0.4-0.8,0.8-1.6,1.2-2.4c0.1-0.2,0.2-0.4,0.3-0.6c0.4-0.8,0.8-1.6,1.3-2.5c0.1-0.1,0.1-0.3,0.2-0.4c0.5-0.9,0.9-1.7,1.4-2.6
			c0.1-0.2,0.2-0.4,0.3-0.6c0.5-0.9,1-1.8,1.5-2.7c0.1-0.2,0.3-0.5,0.4-0.7c0.5-0.9,1.1-1.8,1.6-2.8c0.1-0.2,0.3-0.5,0.4-0.7
			c0.6-1,1.2-2,1.8-3c0.1-0.2,0.2-0.3,0.3-0.5c0.6-1,1.2-1.9,1.8-2.9c0.1-0.2,0.2-0.3,0.3-0.5c0.7-1,1.4-2.1,2.1-3.2
			c0.1-0.2,0.3-0.5,0.5-0.7c0.7-1,1.4-2.1,2.1-3.2c0.2-0.2,0.3-0.5,0.5-0.7c0.8-1.1,1.5-2.2,2.3-3.3c0.1-0.2,0.3-0.4,0.4-0.6
			c0.8-1.2,1.7-2.4,2.5-3.6c0-0.1,0.1-0.1,0.2-0.2c0.9-1.2,1.8-2.4,2.7-3.7c0.1-0.2,0.3-0.4,0.4-0.6c0.9-1.2,1.8-2.5,2.8-3.7
			c0.2-0.2,0.4-0.5,0.5-0.7c1-1.3,1.9-2.5,2.9-3.8c0.2-0.2,0.3-0.5,0.5-0.7c1-1.3,2.1-2.7,3.2-4c0,0,0.1-0.1,0.1-0.1
			c24.2,7,40.7,25.8,40.7,47.3c0,27.7-27.3,50.1-60.8,50.1C492.3,979.8,483.2,978.1,474.9,974.7
			C474.9,974.8,474.9,974.7,474.9,974.7z M466.9,1102.2c2-0.1,4-0.1,6-0.1c7.5,0,15,0.7,22.5,1.8c14.8,36.5,32.7,75.9,51.8,112.4
			c20.3,38.8,40.4,71.6,60.1,98.2l-105.8-52.3l-161.7-79.9C364.6,1134.7,413,1104.1,466.9,1102.2z M419,1243.8l115.3,57
			c-0.3,16.9-6.4,32.9-17.7,45.7c-12.5,14.3-29.9,22.8-48.9,24c-19,1.2-37.3-5-51.5-17.6c-14.3-12.5-22.8-29.9-24-48.9
			c-1.2-19,5-37.3,17.5-51.5C412.6,1249.4,415.7,1246.4,419,1243.8z M574.2,1397.1c-26.1,29.7-62.1,47.4-101.5,49.9
			s-77.4-10.4-107.1-36.5c-29.7-26.1-47.4-62.1-49.9-101.5c-2.4-36.7,8.7-72.2,31.3-100.9l52.7,26c-1.7,1.7-3.4,3.4-4.9,5.2
			c-16.1,18.3-24.1,41.7-22.5,66s12.5,46.5,30.8,62.6c16.8,14.7,37.9,22.7,60,22.7c2,0,4-0.1,6-0.2c44.5-2.9,79.5-37.4,84.6-80.1
			l52.7,26.1C600.7,1358.7,589.8,1379.4,574.2,1397.1z M1500.9,1272.7c22.5,78.1-26,160.9-108.2,184.6
			c-39.9,11.5-81.6,7.5-117.6-11.2c-35.8-18.7-61.4-49.7-72.3-87.5c-0.4-1.5-0.8-3-1.2-4.6c16.9-7.3,35.6-17.4,55.8-30.2
			c0.4,6.1,1.5,12.1,3.2,18.1c11.4,39.5,48.4,65,89.1,65c9,0,18.2-1.3,27.3-3.9c24.3-7,44.5-22.6,57-44c12.6-21.5,15.8-46.3,9-69.7
			c-6.8-23.4-22.6-42.7-44.7-54.2c-5-2.6-10.2-4.7-15.6-6.4c15.4-13.2,31.3-27.4,47.8-42.4
			C1465.3,1205.1,1490.3,1235.7,1500.9,1272.7z M1277.7,1310.7c26.2-17.8,54.9-39.8,86-65.7c8.8,1.1,17.4,3.8,25.4,7.9
			c17.2,9,29.5,23.9,34.8,42l0,0c5.2,18.1,2.7,37.3-7.1,54.1c-9.9,16.9-25.9,29.3-45.3,34.8c-7.3,2.1-14.6,3.1-21.8,3.1
			c-32,0-61-19.8-69.9-50.5C1277.5,1328,1276.8,1319.2,1277.7,1310.7z M1562.9,1056.6l39.6,87.6c-11.4,2.9-23.3,2.3-34.5-1.9
			c-14.4-5.4-25.8-16.1-32.1-30.1l-8.5-18.9C1542.8,1077.5,1555.1,1064.8,1562.9,1056.6z M1553.5,1037.4
			c-33,34.9-249.1,260.4-374.9,304.3c-62.3,21.7-141.9,30.2-223.2,32.9c-43.1,1.4-86.6,1.2-128.3,0.4c-0.1,0-0.1,0-0.2,0h-0.2
			l-4.8-0.1c-11.8-0.2-23.3-0.5-34.3-0.7c-3.7-0.1-7.3-0.2-10.9-0.2c-23.6-0.5-44.3-0.9-62-0.8c-0.1,0-0.2,0-0.3,0
			c-21.1,0-45.7-16.2-73.3-48.1c-24.5-28.5-50.2-68.2-76.3-118c-42.4-80.9-73.9-165.7-85.4-209.9c7.2,1.8,14.6,2.7,22.1,2.7
			c44.6,0,80.8-31.5,80.8-70.1c0-28.1-18.8-52.6-47.1-63.8c36.1-42.5,79.3-83.1,102.6-104.1c8.6,6.7,18.6,12.4,29.8,16.8
			c9.4,3.7,19.6,6.4,30.4,8.1c7.8,1.2,15.8,1.8,23.8,1.8c3.9,0,7.7-0.1,11.5-0.4c-19.3,48.3-48.4,127.8-51,175.3
			c-3.9,69.9,57.1,319.6,59.7,330.2c1,4.3,4.8,7.4,9.2,7.6c0.4,0,38.7,2.1,80.1,1.1c86.5-2.2,102.2-16.1,107.4-20.7
			c9.4-8.3,20.9-31.4,11.7-135.1c-3.7-41.7-9.5-82.1-12.2-99.4c59-16.6,405.9-113.8,497.7-121.5c5.1-0.4,9.4-0.6,12.9-0.4
			C1505.7,927.8,1544.2,1014.3,1553.5,1037.4z M1688.9,908.6h-220.1c-4.2-1.3-8.5-2.2-12.9-2.8c-5.4-11.4-13.5-21-24.2-28.7h257.1
			c8.7,0,15.7,7.1,15.7,15.7C1704.6,901.6,1697.6,908.6,1688.9,908.6z"/>
		<path class="st2" d="M1446,816.1h15.8h155.3c5.5,0,10-4.5,10-10v-8.3c0-42.2-27.4-78-65.4-90.7v-30.6c0-5.5-4.5-10-10-10h-38.1
			c-5.5,0-10,4.5-10,10v29.9c-39.1,12-67.6,48.4-67.6,91.4v0.4v8C1436,811.7,1440.5,816.1,1446,816.1z M1523.6,686.5h18.1v16.3
			c-3.3-0.3-6.7-0.5-10.1-0.5c-2.7,0-5.3,0.1-7.9,0.3L1523.6,686.5L1523.6,686.5z M1531.5,722.3c41.1,0,74.6,33,75.5,73.9h-151
			C1456.9,755.3,1490.4,722.3,1531.5,722.3z"/>
		<path class="st2" d="M1294.8,1205.1c-4.2-3.6-10.5-3.1-14.1,1.1c-39.3,45.8-145.5,83.6-146.6,84c-5.2,1.8-7.9,7.6-6.1,12.8
			c1.4,4.1,5.3,6.7,9.4,6.7c1.1,0,2.2-0.2,3.3-0.6c4.6-1.6,112.3-40,155.1-89.8C1299.5,1215,1299,1208.7,1294.8,1205.1z"/>
		<path class="st2" d="M1327.8,1165.4l-12.7,10.5c-4.3,3.5-4.9,9.8-1.3,14.1c2,2.4,4.8,3.6,7.7,3.6c2.2,0,4.5-0.8,6.4-2.3l12.7-10.5
			c4.3-3.5,4.9-9.8,1.3-14.1S1332.1,1161.8,1327.8,1165.4z"/>
		<path class="st2" d="M1002.5,927c-37.5,10.1-56.4,42.3-57.2,43.7c-1.3,2.2-1.6,4.8-1.1,7.1c0.6,2.7,2.2,5.1,4.8,6.5
			c1.6,0.9,3.3,1.3,5,1.3c3.5,0,6.8-1.8,8.7-5c0.1-0.1,2.1-3.5,6-8.3c7-8.5,20.2-21.1,39-26.1c5.3-1.4,8.5-6.9,7.1-12.3
			C1013.3,928.7,1007.8,925.5,1002.5,927z"/>
		<path class="st2" d="M587.4,1154.9c-17.4-28.4-38.5-92.9-38.8-93.6c-1.7-5.3-7.4-8.1-12.6-6.4c-5.3,1.7-8.1,7.4-6.4,12.6
			c0.9,2.7,22.1,67.4,40.7,97.8c1.9,3.1,5.2,4.8,8.5,4.8c1.8,0,3.6-0.5,5.2-1.5C588.8,1165.8,590.3,1159.6,587.4,1154.9z"/>
		<path class="st2" d="M605.8,1185c-2.7-4.8-8.8-6.5-13.6-3.8s-6.5,8.8-3.8,13.6l10.8,19c1.8,3.3,5.2,5.1,8.7,5.1
			c1.7,0,3.4-0.4,4.9-1.3c4.8-2.7,6.5-8.8,3.8-13.6L605.8,1185z"/>
		<path class="st2" d="M661.2,686.9c2.3,0,4.6-0.8,6.5-2.4c0.2-0.1,17.2-14.3,36.9-14.3c5.5,0,10-4.5,10-10s-4.5-10-10-10
			c-27.4,0-49,18.3-50,19.1c-4.2,3.6-4.7,9.9-1.1,14.1C655.6,685.7,658.4,686.9,661.2,686.9z"/>
		<path class="st2" d="M404,1129.9c-19.4,9.4-33.3,30.8-33.9,31.8c-3,4.7-1.6,10.8,3,13.8c1.7,1.1,3.5,1.6,5.4,1.6
			c3.3,0,6.5-1.6,8.4-4.6c3.1-4.9,13.8-18.7,25.7-24.5c5-2.4,7-8.4,4.6-13.4C415,1129.5,409,1127.5,404,1129.9z"/>
	</g>
</g>
<g id="OUTLINE_FILLED">
	<g>
		<g>
			<rect x="1478.5" y="464" class="st3" width="386.6" height="365.1"/>
			<path class="st2" d="M1865.1,841.8h-386.6c-7,0-12.7-5.7-12.7-12.7V464c0-7,5.7-12.7,12.7-12.7h386.6c7,0,12.7,5.7,12.7,12.7
				v365.1C1877.8,836.1,1872.1,841.8,1865.1,841.8z M1491.2,816.5h361.3V476.7h-361.3V816.5z"/>
		</g>
		<g>
			<path class="st4" d="M1865.1,464v301.4h-273.3c-27.4,0-49.6-22.2-49.6-49.6V464H1865.1z"/>
		</g>
		<g>
			<path class="st5" d="M1869.7,894.3h-398.6c-18,0-32.6-14.6-32.6-32.6l0,0c0-18,14.6-32.6,32.6-32.6h398.6
				c18,0,32.6,14.6,32.6,32.6l0,0C1902.3,879.7,1887.7,894.3,1869.7,894.3z"/>
			<path class="st2" d="M1869.7,907h-398.6c-24.9,0-45.2-20.3-45.2-45.2c0-24.9,20.3-45.2,45.2-45.2h398.6
				c24.9,0,45.2,20.3,45.2,45.2C1915,886.7,1894.7,907,1869.7,907z M1471.1,841.8c-11,0-19.9,8.9-19.9,19.9s8.9,19.9,19.9,19.9
				h398.6c11,0,19.9-8.9,19.9-19.9s-8.9-19.9-19.9-19.9H1471.1z"/>
		</g>
		<g>
			<path class="st2" d="M1865.1,841.8h-386.6c-7,0-12.7-5.7-12.7-12.7V464c0-7,5.7-12.7,12.7-12.7h386.6c7,0,12.7,5.7,12.7,12.7
				v365.1C1877.8,836.1,1872.1,841.8,1865.1,841.8z M1491.2,816.5h361.3V476.7h-361.3V816.5z"/>
		</g>
		<g>
			<rect x="1449.6" y="422.7" class="st6" width="441.7" height="108.5"/>
			<path class="st2" d="M1891.3,543.8h-441.7c-7,0-12.7-5.7-12.7-12.7V422.7c0-7,5.7-12.7,12.7-12.7h441.7c7,0,12.7,5.7,12.7,12.7
				v108.5C1904,538.1,1898.3,543.8,1891.3,543.8z M1462.2,518.5h416.4v-83.1h-416.4V518.5z"/>
		</g>
		<g>
			<path class="st7" d="M1891.3,422.7v68.6H1529c-21.8,0-39.6-17.7-39.6-39.6v-29.1H1891.3z"/>
		</g>
		<g>
			<path class="st2" d="M1891.3,543.8h-441.7c-7,0-12.7-5.7-12.7-12.7V422.7c0-7,5.7-12.7,12.7-12.7h441.7c7,0,12.7,5.7,12.7,12.7
				v108.5C1904,538.1,1898.3,543.8,1891.3,543.8z M1462.2,518.5h416.4v-83.1h-416.4V518.5z"/>
		</g>
		<g>
			<path class="st3" d="M925.8,1076.4c0,0-30.8-14.3-45.5-74.3c-1.8-7.3-2.6-14.9-2.4-22.6c0.3-16.4,5.1-33.2,14.3-48.4
				c21.7-35.9,68.1-63.2,139.1-57.2c64.6,5.4,208.1-34.4,331.2-45.7c57.4-5.3,110.3-4.3,148.7,10.4h0c26.2,10,45.5,26.4,54.9,51.6
				C1618.9,1031.3,925.8,1076.4,925.8,1076.4z"/>
			<path class="st2" d="M925.8,1089.1c-1.8,0-3.6-0.4-5.3-1.2c-1.5-0.7-36.6-17.6-52.4-82.8c-2-8.3-3-17-2.8-25.8
				c0.4-19,6-37.9,16.1-54.7c12.8-21.2,32.4-38.3,56.6-49.3c27-12.3,58.7-17,94.4-14c34.1,2.9,95.3-8.2,160.1-20
				c53.2-9.7,113.5-20.6,168.9-25.7c67.8-6.2,118.2-2.6,154.1,11c0.1,0,0.2,0.1,0.3,0.1c31.2,11.9,52.1,31.8,62.3,59
				c6.4,17,4.3,34.3-5.8,50.1c-18.3,28.3-63,52.8-136.6,75.1c-56.3,17-129.2,32.5-216.9,45.9c-148.8,22.9-290.7,32.2-292.1,32.3
				C926.3,1089.1,926.1,1089.1,925.8,1089.1z M1012.2,885.7c-49.8,0-89,18.5-109.2,51.9c-7.9,13-12.2,27.6-12.5,42.1
				c-0.1,6.6,0.6,13.1,2.1,19.3c10.4,42.9,29.6,59.7,36.3,64.4c23.9-1.7,152.2-11.3,286.1-31.8c86.5-13.3,158.2-28.5,213.3-45.1
				c83-25.1,112.5-49,122.5-64.6c5.9-9.1,7-17.8,3.4-27.5c-7.6-20.3-23.1-34.7-47.3-44.1c-0.1,0-0.2-0.1-0.3-0.1
				c-32.2-12.3-79-15.5-143-9.6c-54.2,5-114,15.8-166.7,25.4c-69.3,12.6-129.2,23.5-166.7,20.3C1024.1,886,1018,885.7,1012.2,885.7z
				"/>
		</g>
		<g>
			<path class="st4" d="M1362.5,828.1c-68.4,61.8-377.6,129.4-484.6,151.4c0.3-16.4,5.1-33.2,14.3-48.4
				c21.7-35.9,68.1-63.2,139.1-57.2C1095.8,879.3,1239.4,839.4,1362.5,828.1z"/>
		</g>
		<g>
			<path class="st2" d="M925.8,1089.1c-1.8,0-3.6-0.4-5.3-1.2c-1.5-0.7-36.6-17.6-52.4-82.8c-2-8.3-3-17-2.8-25.8
				c0.4-19,6-37.9,16.1-54.7c12.8-21.2,32.4-38.3,56.6-49.3c27-12.3,58.7-17,94.4-14c34.1,2.9,95.3-8.2,160.1-20
				c53.2-9.7,113.5-20.6,168.9-25.7c67.8-6.2,118.2-2.6,154.1,11c0.1,0,0.2,0.1,0.3,0.1c31.2,11.9,52.1,31.8,62.3,59
				c6.4,17,4.3,34.3-5.8,50.1c-18.3,28.3-63,52.8-136.6,75.1c-56.3,17-129.2,32.5-216.9,45.9c-148.8,22.9-290.7,32.2-292.1,32.3
				C926.3,1089.1,926.1,1089.1,925.8,1089.1z M1012.2,885.7c-49.8,0-89,18.5-109.2,51.9c-7.9,13-12.2,27.6-12.5,42.1
				c-0.1,6.6,0.6,13.1,2.1,19.3c10.4,42.9,29.6,59.7,36.3,64.4c23.9-1.7,152.2-11.3,286.1-31.8c86.5-13.3,158.2-28.5,213.3-45.1
				c83-25.1,112.5-49,122.5-64.6c5.9-9.1,7-17.8,3.4-27.5c-7.6-20.3-23.1-34.7-47.3-44.1c-0.1,0-0.2-0.1-0.3-0.1
				c-32.2-12.3-79-15.5-143-9.6c-54.2,5-114,15.8-166.7,25.4c-69.3,12.6-129.2,23.5-166.7,20.3C1024.1,886,1018,885.7,1012.2,885.7z
				"/>
		</g>
		<g>
			
				<ellipse transform="matrix(0.7071 -0.7071 0.7071 0.7071 -880.4646 627.7302)" class="st5" cx="317.5" cy="1376.7" rx="199.8" ry="199.8"/>
			<path class="st2" d="M317.2,1589.2c-51.6,0-100.9-18.5-140-52.9c-42.6-37.5-68.1-89.3-71.8-145.9c-3.7-56.6,15-111.3,52.4-154
				c37.5-42.6,89.3-68.1,145.9-71.8c116.9-7.5,218.2,81.4,225.7,198.4c3.7,56.6-15,111.3-52.4,154c-37.5,42.6-89.3,68.1-145.9,71.8
				C326.5,1589,321.9,1589.2,317.2,1589.2z M317.7,1189.5c-4,0-8.1,0.1-12.2,0.4c-49.9,3.2-95.5,25.7-128.5,63.2
				c-33,37.6-49.4,85.7-46.2,135.6c3.2,49.9,25.7,95.5,63.2,128.5c37.6,33,85.7,49.4,135.6,46.2c49.9-3.2,95.5-25.7,128.5-63.2
				c33-37.5,49.4-85.7,46.2-135.6l0,0C497.9,1265.7,415.4,1189.5,317.7,1189.5z"/>
		</g>
		<g>
			<ellipse class="st8" cx="317.5" cy="1376.7" rx="102.8" ry="102.8"/>
			<path class="st2" d="M317.4,1492.1c-28,0-54.8-10.1-76-28.7c-23.2-20.4-37-48.5-39-79.3c-2-30.8,8.1-60.5,28.5-83.6
				c20.4-23.2,48.5-37,79.3-39c30.8-2,60.5,8.1,83.6,28.5c23.2,20.4,37,48.5,39,79.3l0,0c4.1,63.5-44.2,118.5-107.7,122.6
				C322.4,1492,319.9,1492.1,317.4,1492.1z M317.7,1286.6c-2,0-4,0.1-5.9,0.2c-24,1.5-46,12.4-61.9,30.4
				c-15.9,18.1-23.8,41.3-22.2,65.3c1.5,24,12.4,46,30.4,61.9c18.1,15.9,41.3,23.8,65.3,22.2c24-1.5,46-12.4,61.9-30.4
				c15.9-18.1,23.8-41.3,22.2-65.3l0,0c-1.5-24-12.4-46-30.4-61.9C360.4,1294.4,339.5,1286.6,317.7,1286.6z"/>
		</g>
		<g>
			<path class="st3" d="M561.7,1430.7l-3.8,7.8l-194.5-96.2l-219.2-108.4l3.8-7.8c34-68.8,102-109.6,173.7-112.1
				c32.2-1.1,65.2,5.5,96.2,20.8l52.5,25.9C570.2,1210.1,611,1330.9,561.7,1430.7z"/>
			<path class="st2" d="M557.9,1451.1c-1.9,0-3.8-0.4-5.6-1.3l-413.7-204.5c-3-1.5-5.3-4.1-6.4-7.3c-1.1-3.2-0.8-6.7,0.6-9.7
				l3.8-7.8c35-70.7,105.7-116.4,184.6-119.1c35.2-1.2,70.5,6.4,102.2,22.1l52.5,25.9c51.3,25.4,89.6,69.1,107.9,123.3
				c18.3,54.2,14.5,112.2-10.9,163.5l-3.8,7.8c-1.5,3-4.1,5.3-7.3,6.4C560.6,1450.9,559.3,1451.1,557.9,1451.1z M161.2,1228.2
				l390.9,193.2c20.8-44.3,23.6-94.1,7.9-140.6c-16.2-47.8-50-86.4-95.2-108.7l-52.5-25.9c-28-13.8-59.2-20.6-90.1-19.5
				C254,1129.1,192.6,1167.9,161.2,1228.2z"/>
		</g>
		<g>
			<path class="st4" d="M363.4,1342.3l-219.2-108.4l3.8-7.8c34-68.8,102-109.6,173.7-112.1C352.7,1160.2,386.3,1238.2,363.4,1342.3z
				"/>
		</g>
		<g>
			<path class="st2" d="M557.9,1451.1c-1.9,0-3.8-0.4-5.6-1.3l-413.7-204.5c-3-1.5-5.3-4.1-6.4-7.3c-1.1-3.2-0.8-6.7,0.6-9.7
				l3.8-7.8c35-70.7,105.7-116.4,184.6-119.1c35.2-1.2,70.5,6.4,102.2,22.1l52.5,25.9c51.3,25.4,89.6,69.1,107.9,123.3
				c18.3,54.2,14.5,112.2-10.9,163.5l-3.8,7.8c-1.5,3-4.1,5.3-7.3,6.4C560.6,1450.9,559.3,1451.1,557.9,1451.1z M161.2,1228.2
				l390.9,193.2c20.8-44.3,23.6-94.1,7.9-140.6c-16.2-47.8-50-86.4-95.2-108.7l-52.5-25.9c-28-13.8-59.2-20.6-90.1-19.5
				C254,1129.1,192.6,1167.9,161.2,1228.2z"/>
		</g>
		<g>
			<path class="st3" d="M1777.4,1187.2L1777.4,1187.2c-43,19.4-93.7,0.3-113.1-42.7l-43.6-96.4l77.9-35.2L1777.4,1187.2z"/>
			<path class="st2" d="M1742.3,1207.5c-11.7,0-23.4-2.1-34.7-6.4c-24.5-9.3-44-27.5-54.8-51.4l-43.6-96.4c-1.4-3.1-1.5-6.5-0.3-9.7
				c1.2-3.1,3.6-5.7,6.6-7.1l77.9-35.2c6.4-2.9,13.9-0.1,16.8,6.3L1789,1182c1.4,3.1,1.5,6.5,0.3,9.7c-1.2,3.1-3.6,5.7-6.6,7.1
				C1769.8,1204.6,1756,1207.5,1742.3,1207.5z M1637.6,1054.4l38.3,84.9c8,17.7,22.4,31.3,40.6,38.1c14.2,5.4,29.3,6.2,43.7,2.5
				l-67.9-150.2L1637.6,1054.4z"/>
		</g>
		<g>
			
				<ellipse transform="matrix(0.9609 -0.2769 0.2769 0.9609 -330.4561 454.1784)" class="st5" cx="1442.9" cy="1397.2" rx="209.1" ry="199.4"/>
			<path class="st2" d="M1437.4,1610c-35.9,0-71.2-8.5-103.3-25.3c-51.5-26.9-88.5-71.7-104.2-126.2
				c-32.4-112.4,36.9-231.3,154.3-265.2c56.8-16.4,116.3-10.7,167.6,16.1c51.5,26.9,88.5,71.7,104.2,126.2
				c32.4,112.4-36.9,231.3-154.3,265.2C1480.5,1607,1458.8,1610,1437.4,1610z M1448.5,1209.5c-19.1,0-38.3,2.7-57.2,8.2
				c-104.1,30-165.5,134.9-137,233.8c13.8,47.8,46.3,87.2,91.6,110.8c45.5,23.7,98.3,28.8,148.9,14.2
				c104.1-30,165.5-134.9,137-233.8c-13.8-47.8-46.3-87.2-91.6-110.8C1511.7,1217.1,1480.3,1209.5,1448.5,1209.5z"/>
		</g>
		<g>
			
				<ellipse transform="matrix(0.9609 -0.2769 0.2769 0.9609 -330.4611 454.1766)" class="st8" cx="1442.9" cy="1397.2" rx="107.5" ry="102.5"/>
			<path class="st2" d="M1440.3,1512.7c-51.5,0-98.4-32.3-112.8-82.3c-8.5-29.7-4.5-61,11.4-88.3c15.8-27,41.4-46.8,72.2-55.7
				s63-5.7,90.7,8.8c28,14.6,48.1,39,56.6,68.7l0,0c8.5,29.7,4.5,61-11.4,88.3c-15.8,27-41.4,46.8-72.2,55.7
				C1463.3,1511.1,1451.7,1512.7,1440.3,1512.7z M1445.8,1306.8c-9.2,0-18.6,1.3-27.7,4c-24.5,7-44.8,22.7-57.3,44.1
				c-12.4,21.2-15.6,45.5-9,68.5c11.2,38.9,48,64,88.5,64c9.1,0,18.3-1.3,27.5-3.9c24.5-7,44.8-22.7,57.3-44.1
				c12.4-21.2,15.6-45.5,9-68.5l0,0c-6.6-23-22.3-41.9-44-53.2C1476.3,1310.5,1461.2,1306.8,1445.8,1306.8z"/>
		</g>
		<g>
			<path class="st7" d="M1713,1047.5c0,0-308.4,332.7-485.3,394.4c-127.1,44.3-308.2,45.5-449.5,42.9h-0.4c-2.1,0-4.2-0.1-6.2-0.1
				c-52.7-1-99.5-2.4-135.5-2.2c-132.3,0.8-298.6-410.3-315.4-508.5c-0.1-0.6-0.2-1.1-0.3-1.7c-5.7-35.6,25.4-87.4,66.4-138.1
				c68.6-84.8,165.2-167,165.2-167l52.5,5.6l88.5,9.5c0,0-80.3,181.8-85.2,269.4c-4.9,87.7,75.2,414.4,75.2,414.4
				s191.5,10.8,228.3-21.6c36.8-32.5-6.5-296.5-6.5-296.5s568.9-162,661.4-158C1658.6,894.1,1713,1047.5,1713,1047.5z"/>
			<path class="st2" d="M854.6,1498.3c-25.9,0-51.5-0.3-76.6-0.8h-0.3c-0.1,0-0.2,0-0.3,0l-6.2-0.1c-15-0.3-29.6-0.6-43.5-0.9
				c-35.4-0.8-66.1-1.5-91.6-1.3c-0.2,0-0.3,0-0.5,0c-34.4,0-72.1-23.4-112-69.7c-32.3-37.5-66-89.4-99.9-154.2
				c-57.9-110.5-106.5-241.9-115.6-295.2c-0.1-0.5-0.2-1.1-0.3-1.6l0-0.1c-5.6-35.3,17-83.7,69.1-148.1
				c68.5-84.8,165.8-167.9,166.8-168.7c2.6-2.3,6.1-3.3,9.6-3l140.9,15.2c4,0.4,7.6,2.8,9.6,6.3c2,3.5,2.3,7.8,0.6,11.4
				c-0.8,1.8-79.5,180.7-84.2,265c-4.3,76.7,59.8,348,72.6,401.5c16.4,0.7,52.2,1.9,90.1,0.9c90.5-2.3,113.9-14.7,119.7-19.8
				c3-2.7,17.6-22.5,6.3-149.8c-6.1-68.8-16.8-134.5-16.9-135.1c-1-6.3,2.8-12.5,9-14.2c23.3-6.6,572-162.6,665.5-158.4
				c99.9,4.4,155.9,159.3,158.3,165.9c1.6,4.4,0.6,9.4-2.6,12.8c-0.8,0.8-78.6,84.6-177,174.8c-132.9,121.8-238.4,196.8-313.4,223
				C1127.5,1490.3,988,1498.3,854.6,1498.3z M777.8,1472.2h0.3c0.1,0,0.2,0,0.2,0c152.3,2.8,324.3-0.1,445.1-42.2
				c159.3-55.5,433-341.1,474.8-385.3c-11.8-29.2-60.6-138.8-132.8-141.9c-82.5-3.6-567.8,132.2-646.6,154.5
				c3.3,21.9,10.7,73,15.4,125.8c11.7,131.3-2.8,160.5-14.8,171c-6.5,5.8-26.4,23.3-136,26.2c-52.4,1.3-100.9-1.3-101.4-1.4
				c-5.6-0.3-10.3-4.2-11.6-9.6c-3.3-13.4-80.5-329.6-75.5-418.2c4.1-74.6,59.6-211.3,79.4-258L556,680.3
				c-19,16.6-100.3,88.7-159.4,161.8c-58.1,71.9-66.7,109.4-63.7,128.2l0,0.1c0.1,0.4,0.1,0.9,0.2,1.3
				c7.6,44.7,51.2,169.5,113.1,287.8c33.1,63.1,65.6,113.4,96.7,149.4c34.9,40.4,66.1,60.9,92.8,60.9c0.1,0,0.2,0,0.3,0
				c25.9-0.2,56.7,0.5,92.3,1.3c13.9,0.3,28.5,0.6,43.5,0.9L777.8,1472.2z"/>
		</g>
		<g>
			<path class="st8" d="M455.8,908.3c0,42.1-40.2,76.2-89.7,76.2c-16.6,0-32.1-3.8-45.4-10.5c-0.1-0.6-0.2-1.1-0.3-1.7
				c-5.7-35.6,25.4-87.4,66.4-138.1C426.3,842.1,455.8,872.3,455.8,908.3z"/>
			<path class="st2" d="M366.1,997.2c-18,0-35.6-4.1-51.1-11.8c-3.6-1.8-6.1-5.2-6.8-9.1c-0.1-0.6-0.2-1.2-0.3-1.7l0-0.1
				c-5.6-35.3,17-83.7,69.1-148.1c3-3.7,7.7-5.4,12.3-4.5c46.6,9.3,79.2,44.9,79.2,86.6C468.4,957.3,422.5,997.2,366.1,997.2z
				 M332.4,965.4c10.4,4.2,22,6.4,33.7,6.4c42.5,0,77-28.5,77-63.5c0-27.3-20.8-51.1-51.5-59.9C342.4,910.6,331.6,945.9,332.4,965.4
				z"/>
		</g>
		<g>
			<path class="st6" d="M1566.1,890.1c-194.9,162.6-522.1,73.2-534.1,305c-12,231.8,27.7,290.6-247.8,289.9
				c-200.1-0.5-245.7-300.2-272.2-478.4c-23.9-160.5,71.1-304,92.4-333.8l88.5,9.5c0,0-80.3,181.8-85.2,269.4
				c-4.9,87.7,75.2,414.4,75.2,414.4s191.5,10.8,228.3-21.6c36.8-32.5-6.5-296.5-6.5-296.5S1473.6,886,1566.1,890.1z"/>
		</g>
		<g>
			<path class="st2" d="M854.6,1498.3c-25.9,0-51.5-0.3-76.6-0.8h-0.3c-0.1,0-0.2,0-0.3,0l-6.2-0.1c-15-0.3-29.6-0.6-43.5-0.9
				c-35.4-0.8-66.1-1.5-91.6-1.3c-0.2,0-0.3,0-0.5,0c-34.4,0-72.1-23.4-112-69.7c-32.3-37.5-66-89.4-99.9-154.2
				c-57.9-110.5-106.5-241.9-115.6-295.2c-0.1-0.5-0.2-1.1-0.3-1.6l0-0.1c-5.6-35.3,17-83.7,69.1-148.1
				c68.5-84.8,165.8-167.9,166.8-168.7c2.6-2.3,6.1-3.3,9.6-3l140.9,15.2c4,0.4,7.6,2.8,9.6,6.3c2,3.5,2.3,7.8,0.6,11.4
				c-0.8,1.8-79.5,180.7-84.2,265c-4.3,76.7,59.8,348,72.6,401.5c16.4,0.7,52.2,1.9,90.1,0.9c90.5-2.3,113.9-14.7,119.7-19.8
				c3-2.7,17.6-22.5,6.3-149.8c-6.1-68.8-16.8-134.5-16.9-135.1c-1-6.3,2.8-12.5,9-14.2c23.3-6.6,572-162.6,665.5-158.4
				c99.9,4.4,155.9,159.3,158.3,165.9c1.6,4.4,0.6,9.4-2.6,12.8c-0.8,0.8-78.6,84.6-177,174.8c-132.9,121.8-238.4,196.8-313.4,223
				C1127.5,1490.3,988,1498.3,854.6,1498.3z M777.8,1472.2h0.3c0.1,0,0.2,0,0.2,0c152.3,2.8,324.3-0.1,445.1-42.2
				c159.3-55.5,433-341.1,474.8-385.3c-11.8-29.2-60.6-138.8-132.8-141.9c-82.5-3.6-567.8,132.2-646.6,154.5
				c3.3,21.9,10.7,73,15.4,125.8c11.7,131.3-2.8,160.5-14.8,171c-6.5,5.8-26.4,23.3-136,26.2c-52.4,1.3-100.9-1.3-101.4-1.4
				c-5.6-0.3-10.3-4.2-11.6-9.6c-3.3-13.4-80.5-329.6-75.5-418.2c4.1-74.6,59.6-211.3,79.4-258L556,680.3
				c-19,16.6-100.3,88.7-159.4,161.8c-58.1,71.9-66.7,109.4-63.7,128.2l0,0.1c0.1,0.4,0.1,0.9,0.2,1.3
				c7.6,44.7,51.2,169.5,113.1,287.8c33.1,63.1,65.6,113.4,96.7,149.4c34.9,40.4,66.1,60.9,92.8,60.9c0.1,0,0.2,0,0.3,0
				c25.9-0.2,56.7,0.5,92.3,1.3c13.9,0.3,28.5,0.6,43.5,0.9L777.8,1472.2z"/>
		</g>
		<g>
			<path class="st3" d="M778.2,621.6c0,52.7-59.6,95.4-133.1,95.4c-9.7,0-19.1-0.7-28.2-2.2c-52.5-8.1-93.5-38.4-102.9-76.5
				c-1.4-5.4-2.1-11-2.1-16.7c0-12.4,3.3-24.2,9.3-35.1c19.5-35.3,67.6-60.3,123.8-60.3c23.3,0,45.2,4.3,64.3,11.9
				C750.4,554.3,778.2,585.6,778.2,621.6z"/>
			<path class="st2" d="M645.1,729.6c-10.2,0-20.3-0.8-30.1-2.3c-58.1-9-102.5-42.7-113.2-86c-1.6-6.4-2.4-13.1-2.4-19.8
				c0-14.3,3.7-28.1,10.9-41.2c22.4-40.6,75.4-66.8,134.9-66.8c24.1,0,47.9,4.4,69,12.7c47.4,18.7,76.8,55.3,76.8,95.3
				c0,29.7-15.7,57.3-44.3,77.7C719.3,718.8,683.2,729.6,645.1,729.6z M645.1,538.9c-49.7,0-95,21.6-112.7,53.7
				c-5.1,9.3-7.7,19-7.7,28.9c0,4.6,0.6,9.2,1.7,13.7c8.1,32.8,45.3,59.7,92.5,67c8.6,1.3,17.4,2,26.3,2c32.9,0,63.7-9.1,86.7-25.6
				c21.7-15.6,33.7-35.9,33.7-57.1c0-29.4-23.3-56.9-60.8-71.7C686.6,542.7,666,538.9,645.1,538.9z"/>
		</g>
		<g>
			<path class="st4" d="M711.4,554.8c0,52.7-59.6,95.4-133.1,95.4c-9.7,0-19.1-0.7-28.2-2.2c-12.8-2-24.9-5.3-36.1-9.7
				c-1.4-5.4-2.1-11-2.1-16.7c0-12.4,3.3-24.2,9.3-35.1c19.5-35.3,67.6-60.3,123.8-60.3c23.3,0,45.2,4.3,64.3,11.9
				C710.7,543.5,711.4,549.1,711.4,554.8z"/>
		</g>
		<g>
			<path class="st2" d="M645.1,729.6c-10.2,0-20.3-0.8-30.1-2.3c-58.1-9-102.5-42.7-113.2-86c-1.6-6.4-2.4-13.1-2.4-19.8
				c0-14.3,3.7-28.1,10.9-41.2c22.4-40.6,75.4-66.8,134.9-66.8c24.1,0,47.9,4.4,69,12.7c47.4,18.7,76.8,55.3,76.8,95.3
				c0,29.7-15.7,57.3-44.3,77.7C719.3,718.8,683.2,729.6,645.1,729.6z M645.1,538.9c-49.7,0-95,21.6-112.7,53.7
				c-5.1,9.3-7.7,19-7.7,28.9c0,4.6,0.6,9.2,1.7,13.7c8.1,32.8,45.3,59.7,92.5,67c8.6,1.3,17.4,2,26.3,2c32.9,0,63.7-9.1,86.7-25.6
				c21.7-15.6,33.7-35.9,33.7-57.1c0-29.4-23.3-56.9-60.8-71.7C686.6,542.7,666,538.9,645.1,538.9z"/>
		</g>
		<g>
			<ellipse class="st7" cx="720.8" cy="679.8" rx="33.3" ry="33.3"/>
			<path class="st2" d="M720.8,725.7c-25.3,0-45.9-20.6-45.9-45.9s20.6-45.9,45.9-45.9c25.3,0,45.9,20.6,45.9,45.9
				C766.7,705.1,746.1,725.7,720.8,725.7z M720.8,659.2c-11.3,0-20.6,9.2-20.6,20.6s9.2,20.6,20.6,20.6c11.3,0,20.6-9.2,20.6-20.6
				S732.1,659.2,720.8,659.2z"/>
		</g>
		<g>
			<rect x="1647.7" y="587.7" class="st7" width="48.2" height="75.3"/>
			<path class="st2" d="M1695.9,675.6h-48.2c-7,0-12.7-5.7-12.7-12.7v-75.3c0-7,5.7-12.7,12.7-12.7h48.2c7,0,12.7,5.7,12.7,12.7V663
				C1708.6,670,1702.9,675.6,1695.9,675.6z M1660.4,650.3h22.9v-50h-22.9V650.3z"/>
		</g>
		<g>
			<path class="st8" d="M1778.8,751.8h-216.6v-10.6c0-59.8,48.5-108.3,108.3-108.3l0,0c59.8,0,108.3,48.5,108.3,108.3V751.8z"/>
			<path class="st2" d="M1778.8,764.5h-216.6c-7,0-12.7-5.7-12.7-12.7v-10.6c0-66.7,54.3-121,121-121c66.7,0,121,54.3,121,121v10.6
				C1791.4,758.8,1785.8,764.5,1778.8,764.5z M1574.8,739.2h191.2c-1.1-51.8-43.6-93.6-95.6-93.6S1575.9,687.4,1574.8,739.2z"/>
		</g>
		<g>
			<path class="st9" d="M1171.5,1389.4c-5.2,0-10.1-3.3-11.9-8.5c-2.3-6.6,1.1-13.8,7.7-16.1c1.4-0.5,135.8-48.4,185.6-106.4
				c4.6-5.3,12.5-5.9,17.9-1.4c5.3,4.6,5.9,12.5,1.4,17.9c-54.2,63.2-190.6,111.7-196.4,113.8
				C1174.3,1389.1,1172.8,1389.4,1171.5,1389.4z"/>
		</g>
		<g>
			<path class="st9" d="M1404.5,1242.4c-3.6,0-7.3-1.6-9.8-4.6c-4.5-5.4-3.7-13.4,1.7-17.8l16.1-13.3c5.4-4.5,13.4-3.7,17.8,1.7
				c4.5,5.4,3.7,13.4-1.7,17.8l-16.1,13.3C1410.2,1241.5,1407.3,1242.4,1404.5,1242.4z"/>
		</g>
		<g>
			<path class="st9" d="M939,979.2c-2.2,0-4.3-0.5-6.3-1.7c-6-3.5-8.1-11.2-4.7-17.2c1-1.7,24.9-42.6,72.4-55.4
				c6.8-1.8,13.7,2.2,15.5,9c1.8,6.7-2.2,13.7-9,15.5c-37.1,10-56.8,43.2-57,43.5C947.7,976.9,943.4,979.2,939,979.2z"/>
		</g>
		<g>
			<path class="st9" d="M464,1212.7c-4.3,0-8.4-2.2-10.8-6.1c-23.6-38.5-50.4-120.4-51.5-123.9c-2.2-6.6,1.5-13.8,8.1-16
				c6.6-2.2,13.8,1.5,16,8.1c0.3,0.8,27.1,82.5,49.1,118.5c3.6,6,1.8,13.8-4.2,17.4C468.6,1212.1,466.3,1212.7,464,1212.7z"/>
		</g>
		<g>
			<path class="st9" d="M500.7,1274.6c-4.4,0-8.7-2.3-11-6.4l-13.6-24.1c-3.4-6.1-1.3-13.8,4.8-17.3c6.1-3.4,13.8-1.3,17.3,4.8
				l13.6,24.1c3.4,6.1,1.3,13.8-4.8,17.3C505,1274,502.8,1274.6,500.7,1274.6z"/>
		</g>
		<g>
			<path class="st9" d="M568.3,600.8c-3.6,0-7.1-1.5-9.6-4.4c-4.5-5.3-3.9-13.3,1.4-17.9c1.2-1,28.6-24.1,63.3-24.1
				c7,0,12.7,5.7,12.7,12.7c0,7-5.7,12.7-12.7,12.7c-25,0-46.6,17.9-46.8,18.1C574.2,599.8,571.2,600.8,568.3,600.8z"/>
		</g>
		<g>
			<path class="st9" d="M210.4,1221.5c-2.3,0-4.7-0.6-6.8-2c-5.9-3.8-7.6-11.6-3.8-17.5c0.7-1.2,18.3-28.3,42.9-40.2
				c6.3-3,13.9-0.4,16.9,5.9c3.1,6.3,0.4,13.9-5.9,16.9c-15.1,7.3-28.6,24.9-32.6,31.1C218.7,1219.4,214.6,1221.5,210.4,1221.5z"/>
		</g>
	</g>
</g>
<g id="FLAT_COLORED" class="st0">
	<g class="st1">
		<g>
			<rect x="1380" y="578.9" class="st3" width="305.3" height="288.3"/>
		</g>
		<g>
			<path class="st4" d="M1685.3,578.9v238h-215.8c-21.6,0-39.2-17.5-39.2-39.2V578.9H1685.3z"/>
		</g>
		<g>
			<path class="st5" d="M1688.9,918.6h-314.8c-14.2,0-25.7-11.5-25.7-25.7l0,0c0-14.2,11.5-25.7,25.7-25.7h314.8
				c14.2,0,25.7,11.5,25.7,25.7l0,0C1714.6,907.1,1703.1,918.6,1688.9,918.6z"/>
		</g>
		<g>
			<rect x="1357.1" y="546.2" class="st6" width="348.8" height="85.7"/>
		</g>
		<g>
			<path class="st7" d="M1705.9,546.2v54.2h-286.1c-17.3,0-31.2-14-31.2-31.2v-23H1705.9z"/>
		</g>
		<g>
			<path class="st3" d="M943.5,1062.5c0,0-24.4-11.3-35.9-58.7c-1.4-5.8-2-11.8-1.9-17.8c0.3-13,4-26.2,11.3-38.2
				c17.1-28.4,53.7-49.9,109.9-45.2c51,4.3,164.4-27.2,261.5-36.1c45.3-4.2,87.1-3.4,117.4,8.2h0c20.7,7.9,36,20.9,43.4,40.7
				C1490.8,1026.8,943.5,1062.5,943.5,1062.5z"/>
		</g>
		<g>
			<path class="st4" d="M1288.3,866.4c-54,48.8-298.2,102.2-382.7,119.5c0.3-13,4-26.2,11.3-38.2c17.1-28.4,53.7-49.9,109.9-45.2
				C1077.8,906.8,1191.2,875.3,1288.3,866.4z"/>
		</g>
		<g>
			
				<ellipse transform="matrix(0.7071 -0.7071 0.7071 0.7071 -783.2664 708.1378)" class="st5" cx="463.2" cy="1299.6" rx="157.8" ry="157.8"/>
		</g>
		<g>
			<ellipse class="st8" cx="463.2" cy="1299.6" rx="81.1" ry="81.1"/>
		</g>
		<g>
			<path class="st3" d="M656,1342.2l-3,6.1l-153.6-75.9l-173.1-85.6l3-6.2c26.9-54.3,80.6-86.5,137.1-88.5
				c25.5-0.9,51.5,4.3,76,16.4l41.5,20.5C662.7,1168,695,1263.4,656,1342.2z"/>
		</g>
		<g>
			<path class="st4" d="M499.4,1272.4l-173.1-85.6l3-6.2c26.9-54.3,80.6-86.5,137.1-88.5C491,1128.6,517.5,1190.2,499.4,1272.4z"/>
		</g>
		<g>
			<path class="st3" d="M1616,1150L1616,1150c-34,15.3-74,0.2-89.3-33.7l-34.4-76.1l61.5-27.8L1616,1150z"/>
		</g>
		<g>
			
				<ellipse transform="matrix(0.9609 -0.2769 0.2769 0.9609 -311.4674 425.7785)" class="st5" cx="1351.9" cy="1315.7" rx="165.1" ry="157.5"/>
		</g>
		<g>
			
				<ellipse transform="matrix(0.9609 -0.2769 0.2769 0.9609 -311.4714 425.777)" class="st8" cx="1351.9" cy="1315.7" rx="84.9" ry="81"/>
		</g>
		<g>
			<path class="st7" d="M1565.1,1039.6c0,0-243.5,262.8-383.2,311.5c-100.4,35-243.4,35.9-355,33.9h-0.3c-1.7,0-3.3-0.1-4.9-0.1
				c-41.6-0.8-78.6-1.9-107-1.8c-104.5,0.6-235.8-324-249.1-401.6c-0.1-0.5-0.1-0.9-0.2-1.3c-4.5-28.2,20-69,52.4-109.1
				c54.2-67,130.4-131.9,130.4-131.9l41.5,4.5l69.8,7.5c0,0-63.4,143.5-67.3,212.8c-3.8,69.2,59.4,327.3,59.4,327.3
				s151.3,8.5,180.3-17.1s-5.1-234.1-5.1-234.1s449.3-128,522.3-124.8C1522.2,918.5,1565.1,1039.6,1565.1,1039.6z"/>
		</g>
		<g>
			<path class="st8" d="M572.3,929.7c0,33.2-31.7,60.1-70.8,60.1c-13.1,0-25.4-3-35.9-8.3c-0.1-0.5-0.1-0.9-0.2-1.3
				c-4.5-28.2,20-69,52.4-109.1C549.1,877.4,572.3,901.3,572.3,929.7z"/>
		</g>
		<g>
			<path class="st6" d="M1449.1,915.3c-153.9,128.4-412.3,57.8-421.7,240.9c-9.5,183.1,21.8,229.4-195.7,228.9
				c-158-0.4-194-237.1-215-377.8c-18.8-126.8,56.2-240.1,73-263.6l69.8,7.5c0,0-63.4,143.5-67.3,212.8
				c-3.8,69.2,59.4,327.3,59.4,327.3s151.3,8.5,180.3-17.1s-5.1-234.1-5.1-234.1S1376.1,912.1,1449.1,915.3z"/>
		</g>
		<g>
			<path class="st3" d="M826.9,703.3c0,41.6-47,75.3-105.1,75.3c-7.6,0-15.1-0.6-22.3-1.7c-41.4-6.4-73.8-30.3-81.2-60.4
				c-1.1-4.3-1.6-8.7-1.6-13.2c0-9.8,2.6-19.1,7.3-27.7c15.4-27.9,53.4-47.6,97.8-47.6c18.4,0,35.7,3.4,50.8,9.4
				C805,650.1,826.9,674.9,826.9,703.3z"/>
		</g>
		<g>
			<path class="st4" d="M774.2,650.5c0,41.6-47,75.3-105.1,75.3c-7.6,0-15.1-0.6-22.3-1.7c-10.1-1.6-19.7-4.2-28.5-7.7
				c-1.1-4.3-1.6-8.7-1.6-13.2c0-9.8,2.6-19.1,7.3-27.7c15.4-27.9,53.4-47.6,97.8-47.6c18.4,0,35.7,3.4,50.8,9.4
				C773.6,641.6,774.2,646,774.2,650.5z"/>
		</g>
		<g>
			<ellipse class="st7" cx="781.6" cy="749.3" rx="26.3" ry="26.3"/>
		</g>
		<g>
			<rect x="1513.6" y="676.5" class="st7" width="38.1" height="59.5"/>
		</g>
		<g>
			<path class="st8" d="M1617.1,806.1H1446v-8.3c0-47.2,38.3-85.5,85.5-85.5l0,0c47.2,0,85.5,38.3,85.5,85.5V806.1z"/>
		</g>
		<g>
			<path class="st9" d="M1137.5,1309.6c-4.1,0-8-2.6-9.4-6.7c-1.8-5.2,0.9-10.9,6.1-12.8c1.1-0.4,107.2-38.2,146.6-84
				c3.6-4.2,9.9-4.7,14.1-1.1s4.7,9.9,1.1,14.1c-42.8,49.9-150.5,88.2-155.1,89.8C1139.7,1309.4,1138.6,1309.6,1137.5,1309.6z"/>
		</g>
		<g>
			<path class="st9" d="M1321.5,1193.6c-2.9,0-5.7-1.2-7.7-3.6c-3.5-4.3-2.9-10.6,1.3-14.1l12.7-10.5c4.3-3.5,10.6-2.9,14.1,1.3
				c3.5,4.3,2.9,10.6-1.3,14.1l-12.7,10.5C1326,1192.8,1323.7,1193.6,1321.5,1193.6z"/>
		</g>
		<g>
			<path class="st9" d="M954,985.7c-1.7,0-3.4-0.4-5-1.3c-4.8-2.8-6.4-8.8-3.7-13.6c0.8-1.4,19.7-33.7,57.2-43.7
				c5.3-1.4,10.8,1.7,12.3,7.1c1.4,5.3-1.7,10.8-7.1,12.3c-29.3,7.9-44.9,34.1-45,34.4C960.8,983.9,957.4,985.7,954,985.7z"/>
		</g>
		<g>
			<path class="st9" d="M578.9,1170.1c-3.4,0-6.7-1.7-8.5-4.8c-18.6-30.4-39.8-95.1-40.7-97.8c-1.7-5.3,1.2-10.9,6.4-12.6
				s10.9,1.2,12.6,6.4c0.2,0.7,21.4,65.1,38.8,93.6c2.9,4.7,1.4,10.9-3.3,13.8C582.5,1169.6,580.7,1170.1,578.9,1170.1z"/>
		</g>
		<g>
			<path class="st9" d="M607.8,1218.9c-3.5,0-6.9-1.8-8.7-5.1l-10.8-19c-2.7-4.8-1-10.9,3.8-13.6c4.8-2.7,10.9-1,13.6,3.8l10.8,19
				c2.7,4.8,1,10.9-3.8,13.6C611.2,1218.5,609.5,1218.9,607.8,1218.9z"/>
		</g>
		<g>
			<path class="st9" d="M661.2,686.9c-2.8,0-5.6-1.2-7.6-3.5c-3.6-4.2-3.1-10.5,1.1-14.1c0.9-0.8,22.6-19.1,50-19.1
				c5.5,0,10,4.5,10,10s-4.5,10-10,10c-19.8,0-36.8,14.1-36.9,14.3C665.8,686.1,663.5,686.9,661.2,686.9z"/>
		</g>
		<g>
			<path class="st9" d="M378.6,1177c-1.8,0-3.7-0.5-5.4-1.6c-4.6-3-6-9.2-3-13.8c0.6-0.9,14.4-22.3,33.9-31.8c5-2.4,11-0.3,13.4,4.7
				c2.4,5,0.3,10.9-4.6,13.4c-11.9,5.8-22.6,19.7-25.7,24.5C385.1,1175.4,381.9,1177,378.6,1177z"/>
		</g>
	</g>
</g>
</svg>
